<svg width="61" height="61" fill="none" xmlns="http://www.w3.org/2000/svg"><path d="M48.146 43.245c1.082 0 1.961.88 1.961 1.96h1.96c0-1.821-1.253-3.344-2.94-3.782v-2.1h-1.961v1.961h-2.941v3.921a3.925 3.925 0 003.921 3.922c1.082 0 1.961.88 1.961 1.96v1.961h-1.96a1.963 1.963 0 01-1.961-1.96h-1.961c0 1.821 1.254 3.343 2.941 3.782v2.1h1.96v-1.961h2.942v-3.922a3.925 3.925 0 00-3.922-3.92c-1.08 0-1.96-.88-1.96-1.962v-1.96h1.96z" fill="#FF5C00"/><path d="M48.574 35.423l-8.27-8.27-17.647 17.646-6.862-6.862L2.07 51.662v-6.05l13.725-13.726 3.921 3.922 17.115-17.116c2.123 4.096 6.393 6.906 11.315 6.906 7.028 0 12.745-5.717 12.745-12.744 0-7.028-5.717-12.745-12.745-12.745-7.027 0-12.744 5.717-12.744 12.745 0 1.354.216 2.66.61 3.886L19.717 33.035l-3.921-3.921L2.07 42.839V23.638h5.882v-1.961H2.07v-1.961h7.842v-1.96H2.07v-1.961h5.882v-1.961H2.07v-1.96h7.842V9.911H2.07v-1.96h5.882V5.99H2.07V4.03h7.842V2.07H2.07V.109H.109V60.89h48.037c7.028 0 12.745-5.717 12.745-12.745 0-6.883-5.489-12.494-12.317-12.723zM48.146 2.07c5.946 0 10.784 4.838 10.784 10.784 0 5.945-4.838 10.784-10.784 10.784-5.946 0-10.784-4.839-10.784-10.785 0-5.945 4.838-10.783 10.784-10.783zM29.52 40.71v18.22h-3.922v-14.3l3.922-3.92zm-5.883 5.882V58.93h-3.921v-14.3l2.941 2.942.98-.98zm-5.882-3.922v16.26h-3.921V42.67l1.96-1.96 1.961 1.96zm-5.882 16.26H7.952V48.552l3.921-3.921v14.3zM2.07 54.434l3.921-3.921v8.417H2.07v-4.496zm29.41 4.496V38.75l8.823-8.824 5.676 5.676c-5.997 1.033-10.577 6.258-10.577 12.545 0 4.543 2.396 8.527 5.984 10.784H31.48zm16.666 0c-5.946 0-10.784-4.838-10.784-10.784 0-5.946 4.838-10.784 10.784-10.784 5.946 0 10.784 4.838 10.784 10.784 0 5.946-4.838 10.784-10.784 10.784z" fill="#033A48"/><path d="M48.146 17.755c-1.08 0-1.96-.88-1.96-1.96h-1.961c0 1.821 1.254 3.344 2.941 3.782v2.1h1.96v-1.961h2.942v-3.921a3.925 3.925 0 00-3.922-3.922c-1.08 0-1.96-.88-1.96-1.96V7.951h1.96c1.082 0 1.961.88 1.961 1.96h1.96c0-1.821-1.253-3.344-2.94-3.782v-2.1h-1.961V5.99h-2.941v3.921a3.925 3.925 0 003.921 3.922c1.082 0 1.961.88 1.961 1.96v1.961h-1.96zm-23.054-3.823h1.767v1.904h-1.767V19h-2.373v-3.164h-6.143l-.068-1.445 6.133-9.61h2.45v9.15zm-6.094 0h3.72V7.994l-.175.313-3.545 5.625z" fill="#FF5C00"/></svg>