<svg width="71" height="52" fill="none" xmlns="http://www.w3.org/2000/svg"><path d="M39.89 12.572a5.883 5.883 0 001.527-3.934V6.27A5.92 5.92 0 0035.5.347a5.92 5.92 0 00-5.916 5.922v2.37a5.883 5.883 0 001.526 3.933 5.914 5.914 0 00-3.893 5.542v4.738h2.367v-4.738a3.552 3.552 0 013.55-3.554h1.183v8.292h2.367V14.56h1.183c1.96 0 3.55 1.591 3.55 3.554v4.738h2.367v-4.738a5.914 5.914 0 00-3.893-5.542zm-.84-3.934a3.552 3.552 0 01-3.55 3.554 3.552 3.552 0 01-3.55-3.554V6.27a3.552 3.552 0 013.55-3.553c1.96 0 3.55 1.59 3.55 3.553v2.37z" fill="#FF5C00"/><path d="M31.751 49.437l-2.168-3.252v-9.12a5.927 5.927 0 00-5.916-5.922H21.3v2.369h2.367c1.96 0 3.55 1.59 3.55 3.553v9.476c0 .234.07.462.199.657l1.14 1.712H24.85V37.065h-2.367v13.03c0 .653.53 1.184 1.184 1.184h7.1a1.184 1.184 0 00.984-1.842zM20.117 8.638V6.27A5.92 5.92 0 0014.2.347a5.92 5.92 0 00-5.917 5.922v2.37c0 1.584.637 3.102 1.767 4.211a7.116 7.116 0 00-4.042 5.37 5.86 5.86 0 00-3.642-1.29H1.183A1.184 1.184 0 00.01 18.26l2.062 16.51a3.971 3.971 0 003.404 3.435l-4.23 12.7 2.243.748L7.952 38.25h9.798v13.029h2.367V37.065a5.927 5.927 0 00-5.917-5.922H9.467c-.654 0-1.184-.53-1.184-1.184v-10.66a4.736 4.736 0 014.734-4.739v13.03h2.366V15.22a4.723 4.723 0 012.367 4.078v10.66h2.367v-10.66a7.094 7.094 0 00-2.805-5.645 5.91 5.91 0 002.805-5.015zM9.467 33.512H14.2a3.55 3.55 0 013.332 2.369H6.01a1.606 1.606 0 01-1.59-1.405L2.523 19.298a3.552 3.552 0 013.392 3.554v7.107a3.552 3.552 0 003.55 3.553zM17.75 8.638a3.552 3.552 0 01-3.55 3.554 3.552 3.552 0 01-3.55-3.554V6.27a3.552 3.552 0 013.55-3.553c1.96 0 3.55 1.59 3.55 3.553v2.37z" fill="#033A48"/><path d="M22.483 25.22v2.37h11.834v23.689h2.367v-23.69h11.833v-2.368H22.483z" fill="#FF5C00"/><path d="M43.784 46.54v-9.475a3.552 3.552 0 013.55-3.553H49.7v-2.37h-2.366a5.927 5.927 0 00-5.917 5.923v9.12l-2.168 3.255a1.185 1.185 0 00.984 1.839h7.1c.654 0 1.184-.53 1.184-1.185V37.065H46.15V48.91h-3.706l1.14-1.712c.13-.195.2-.423.2-.657zM68.93 34.765l2.061-16.509a1.184 1.184 0 00-1.174-1.327h-1.183a5.86 5.86 0 00-3.641 1.29 7.116 7.116 0 00-4.042-5.369 5.901 5.901 0 001.766-4.212V6.27A5.92 5.92 0 0056.801.347a5.92 5.92 0 00-5.917 5.922v2.37a5.91 5.91 0 002.804 5.014 7.094 7.094 0 00-2.804 5.645v10.66h2.367v-10.66a4.723 4.723 0 012.366-4.079v12.37h2.367V14.562a4.736 4.736 0 014.733 4.737v10.66c0 .655-.53 1.185-1.183 1.185h-4.733a5.927 5.927 0 00-5.917 5.922V51.28h2.367V38.25h9.798l4.463 13.404 2.249-.748L65.525 38.2a3.97 3.97 0 003.405-3.435zM60.35 8.638a3.552 3.552 0 01-3.55 3.554 3.552 3.552 0 01-3.55-3.554V6.27a3.552 3.552 0 013.55-3.553 3.55 3.55 0 013.55 3.553v2.37zm4.642 27.243H53.468a3.55 3.55 0 013.332-2.37h4.734c1.96 0 3.55-1.59 3.55-3.553v-7.106a3.552 3.552 0 013.393-3.554l-1.894 15.174a1.606 1.606 0 01-1.591 1.409z" fill="#033A48"/></svg>