<svg width="66" height="66" fill="none" xmlns="http://www.w3.org/2000/svg"><path d="M62.807 11.71a3.19 3.19 0 00-2.998 2.129h-4.454v2.129h4.454a3.19 3.19 0 002.998 2.129A3.197 3.197 0 0066 14.903a3.197 3.197 0 00-3.193-3.193zm0 4.258a1.066 1.066 0 01-1.065-1.065c0-.586.478-1.064 1.065-1.064.586 0 1.064.478 1.064 1.064 0 .587-.478 1.065-1.064 1.065z" fill="#FF5C00"/><path d="M56.42 18.097a3.19 3.19 0 00-2.998 2.129h-2.949l-2.13-2.13h-8.12l.124 1.176c.07.665.105 1.343.105 2.018v.924a19.07 19.07 0 01-7.191 14.963l-3.455 2.764v9.027H17.032v-4.321c4.783-.532 8.516-4.596 8.516-9.518v-1.064H23.42v1.064c0 4.11-3.342 7.452-7.451 7.452H9.21a3.177 3.177 0 01-3.18-2.904l-.775-8.531-3.127-1.043V21.29c0-10.565 8.596-19.161 19.161-19.161 6.68 0 12.772 3.394 16.297 9.077l.312.504h10.445l2.129-2.13h2.949a3.19 3.19 0 002.997 2.13 3.197 3.197 0 003.194-3.194 3.197 3.197 0 00-3.194-3.193 3.19 3.19 0 00-2.997 2.129h-3.83l-2.13 2.129h-8.388C35.115 3.57 28.512 0 21.29 0 9.55 0 0 9.55 0 21.29v10.35l3.26 1.086.65 7.144a5.297 5.297 0 005.301 4.84h5.692v4.259h-2.129a3.198 3.198 0 00-3.193 3.193c0 .793.3 1.51.78 2.069a11.693 11.693 0 00-6.103 10.273V66h38.323v-1.064c0-4.539-2.6-8.472-6.383-10.416a3.174 3.174 0 001.06-2.359 3.198 3.198 0 00-3.194-3.193h-2.128v-8.005l2.654-2.124a21.184 21.184 0 007.99-16.625v-.924c0-.354-.008-.71-.026-1.064h4.908l2.13 2.129h3.83a3.19 3.19 0 002.997 2.129 3.197 3.197 0 003.194-3.194 3.197 3.197 0 00-3.194-3.193zm0-10.645c.586 0 1.064.478 1.064 1.064 0 .587-.478 1.065-1.065 1.065a1.066 1.066 0 01-1.064-1.065c0-.586.478-1.064 1.064-1.064zM6.407 63.87a9.573 9.573 0 015.787-8.174l.797-.342h11.174c-2.747 1.928-4.639 4.995-4.957 8.516H6.41zm19.248 0a5.332 5.332 0 015.215-4.258c2.57 0 4.72 1.832 5.215 4.258h-10.43zm14.737 0h-2.156c-.52-3.605-3.62-6.387-7.366-6.387-3.746 0-6.847 2.782-7.366 6.387h-2.156c.531-4.784 4.599-8.516 9.522-8.516s8.99 3.732 9.522 8.516zm-5.264-11.71c0 .587-.478 1.065-1.064 1.065h-21.29a1.066 1.066 0 01-1.065-1.065c0-.586.478-1.064 1.064-1.064h21.29c.587 0 1.065.478 1.065 1.064zm21.29-29.806a1.066 1.066 0 01-1.064-1.065c0-.586.478-1.064 1.064-1.064.587 0 1.065.478 1.065 1.064 0 .587-.478 1.065-1.065 1.065z" fill="#033A48"/><path d="M43.645 31.936h14.903v2.129H43.645v-2.13zm-3.193-18.097h14.903v2.129H40.452v-2.13zm3.193 22.355h14.903v2.129H43.645v-2.13zm0 4.258h14.903v2.129H43.645v-2.13zm0 4.258h2.129v2.129h-2.129v-2.13zm4.258 0h2.13v2.129h-2.13v-2.13zm8.517 0h2.128v2.129H56.42v-2.13zm-4.259 0h2.13v2.129h-2.13v-2.13z" fill="#FF5C00"/><path d="M10.308 13.839c.989 0 1.794.802 1.794 1.79 0 .178-.053.34-.102.505 2.293 1.846 6.345 5.1 8.192 6.521.29-.206.63-.353 1.013-.353.32 0 .603.106.862.251l4.64-3.939c-.02-.104-.061-.196-.061-.306 0-.989.805-1.79 1.796-1.79.99 0 1.796.801 1.796 1.79 0 .176-.053.336-.1.497l4.638 4.182c.25-.13.518-.222.821-.222.99 0 1.794.802 1.794 1.79a1.793 1.793 0 01-3.586-.001c0-.236.05-.46.134-.666l-4.545-4.098c-.277.18-.591.312-.95.312-.424 0-.794-.169-1.1-.412l-4.466 3.79c.072.192.123.395.123.613a1.793 1.793 0 01-3.588 0c0-.218.053-.422.125-.615l-8.235-6.396c-.288.196-.619.34-.993.34-.99 0-1.794-.803-1.794-1.792a1.79 1.79 0 011.792-1.791z" fill="#033A48"/><path d="M14.167 25.548c.989 0 1.794-.802 1.794-1.789 0-.18-.053-.341-.102-.506 2.293-1.846 6.345-5.1 8.191-6.52.292.205.63.352 1.014.352.32 0 .603-.105.862-.25 1.187 1.007 3.206 2.72 4.639 3.938-.019.104-.06.196-.06.306 0 .989.805 1.791 1.796 1.791.99 0 1.795-.802 1.795-1.791 0-.176-.052-.336-.1-.497l4.64-4.182c.249.13.517.223.82.223.99 0 1.794-.803 1.794-1.792a1.793 1.793 0 00-3.586.002c0 .236.05.46.134.666l-4.545 4.098c-.278-.18-.592-.311-.95-.311-.424 0-.795.168-1.1.411l-4.466-3.79a1.73 1.73 0 00.123-.613c0-.99-.804-1.791-1.794-1.791s-1.794.802-1.794 1.79c0 .22.053.424.124.616l-8.234 6.396c-.288-.196-.619-.34-.993-.34-.99 0-1.794.803-1.794 1.792a1.79 1.79 0 001.792 1.791z" fill="#FF5C00"/></svg>