<svg width="61" height="62" fill="none" xmlns="http://www.w3.org/2000/svg"><g clip-path="url(#clip0)"><path d="M11.806 17.626h.984c7.005 0 8.855-5.805 8.855-8.875v-.986h-.984c-4.498 0-7.248 1.551-8.855 3.497V9.738c0-4.893-3.972-8.875-8.854-8.875H0v1.972c0 4.893 3.973 8.875 8.855 8.875h.984v6.35c-1.28-1.311-3.383-2.406-6.887-2.406h-.984v.986c0 2.68 1.484 7.748 7.105 7.748h.766v4.085H3.935v8.875c0 3.805 3.09 6.903 6.888 6.903 2.712 0 4.919 2.211 4.919 4.93v6.903h-4.92c-2.712 0-4.919-2.212-4.919-4.93V44.25H3.935v6.903a6.903 6.903 0 005.904 6.824V62h1.967v-3.944h5.904V49.18c0-3.805-3.09-6.903-6.887-6.903-2.713 0-4.92-2.212-4.92-4.93v-6.903h4.92c2.712 0 4.919 2.212 4.919 4.93v6.903h1.968v-6.902a6.903 6.903 0 00-5.904-6.824V17.626zm7.776-7.853c-.302 1.929-1.56 5.881-6.792 5.881h-.909c.414-2.732 2.604-5.535 7.701-5.881zM8.855 9.738c-3.798 0-6.887-3.097-6.887-6.903h.984c3.797 0 6.887 3.096 6.887 6.903h-.984zm.218 12.678c-3.766 0-4.772-3.084-5.04-4.747 5.252.425 5.756 3.944 5.8 4.747h-.76zm30.282 13.946v5.916H19.678V62H61V36.362H39.355zm1.968 1.972h17.71v3.944h-1.968v-1.972h-1.968v1.972h-1.968v-1.972h-1.968v1.972h-1.967v-1.972h-1.968v1.972h-1.968v-1.972H43.29v1.972h-1.967v-3.944zm17.71 5.916v3.945h-1.968v-1.972h-1.968v1.972h-1.968v-1.972h-1.968v1.972h-1.967v-1.972h-1.968v1.972h-1.968v-1.972H43.29v1.972h-1.967V44.25h17.71zm-3.936 7.89v1.971h-1.968V52.14h-1.968v1.972h-1.967V52.14h-1.968v1.972h-1.968V52.14H43.29v1.972h-1.967v-3.944h17.71v3.944h-1.968V52.14h-1.968zm-19.678 0v1.971h-1.967V52.14h-1.968v1.972h-1.968V52.14H27.55v1.972h-1.97V52.14h-1.968v1.972h-1.968v-3.944h17.71v3.944h-1.968V52.14H35.42zm3.936-7.89v3.945h-1.968v-1.972H35.42v1.972h-1.967v-1.972h-1.968v1.972h-1.968v-1.972H27.55v1.972h-1.97v-1.972h-1.968v1.972h-1.968V44.25h17.71zm-1.968 15.778v-1.972H35.42v1.972h-1.967v-1.972h-1.968v1.972h-1.968v-1.972H27.55v1.972h-1.97v-1.972h-1.968v1.972h-1.968v-3.944h17.71v3.944h-1.968zm19.678 0v-1.972h-1.968v1.972h-1.968v-1.972h-1.968v1.972h-1.967v-1.972h-1.968v1.972h-1.968v-1.972H43.29v1.972h-1.967v-3.944h17.71v3.944h-1.968z" fill="#033A48"/><path d="M45.258 34.39h1.968V12.696h-3.08l6.031-9.07 6.032 9.07h-3.08V34.39h1.968V14.668h4.79L50.177.071l-9.71 14.597h4.791V34.39zM25.58 24.529v15.777h1.969v-17.75h-3.081l6.032-9.068 6.032 9.069h-3.08v17.75h1.968V24.528h4.79L30.5 9.932l-9.71 14.597h4.79z" fill="#FF5C00"/></g><defs><clipPath id="clip0"><path fill="#fff" d="M0 0h61v62H0z"/></clipPath></defs></svg>