<svg width="65" height="65" fill="none" xmlns="http://www.w3.org/2000/svg"><path d="M36.65 16.938h6.224v13.487a1.038 1.038 0 001.038 1.037h10.374a1.037 1.037 0 001.038-1.037V16.938h6.225a1.038 1.038 0 00.788-1.713L49.886.701a1.037 1.037 0 00-1.575 0l-12.45 14.524a1.037 1.037 0 00.788 1.713zM49.1 2.97l10.193 11.893h-5.007A1.038 1.038 0 0053.25 15.9v13.487h-8.3V15.9a1.037 1.037 0 00-1.037-1.037h-5.007L49.1 2.97zM28.35 48.062h-6.225V34.575a1.038 1.038 0 00-1.037-1.038H10.713a1.038 1.038 0 00-1.037 1.038v13.487H3.45a1.038 1.038 0 00-.788 1.713l12.45 14.524a1.036 1.036 0 001.575 0l12.45-14.524a1.038 1.038 0 00-.788-1.713zM15.9 62.03L5.707 50.137h5.006a1.037 1.037 0 001.038-1.038V35.612h8.3V49.1a1.037 1.037 0 001.037 1.038h5.006L15.9 62.03zm33.2-28.493A15.562 15.562 0 1064.66 49.1 15.58 15.58 0 0049.1 33.537zm0 29.05a13.487 13.487 0 1113.486-13.488A13.502 13.502 0 0149.1 62.586z" fill="#033A48"/><path d="M53.638 41.027L49.1 44.658l-4.539-3.631a1.037 1.037 0 10-1.297 1.62l4.799 3.839v1.576h-2.075a1.037 1.037 0 100 2.075h2.075v2.075h-2.075a1.037 1.037 0 100 2.075h2.075v2.075a1.037 1.037 0 102.075 0v-2.075h2.075a1.038 1.038 0 000-2.075h-2.075v-2.075h2.075a1.038 1.038 0 000-2.075h-2.075v-1.576l4.798-3.839a1.037 1.037 0 10-1.297-1.62z" fill="#FF5C00"/><path d="M15.9.339A15.562 15.562 0 1031.462 15.9 15.58 15.58 0 0015.9.339zm0 29.049A13.488 13.488 0 1129.387 15.9 13.502 13.502 0 0115.9 29.388z" fill="#033A48"/><path d="M15.9 8.638c1.527 0 2.974.951 3.97 2.61a1.038 1.038 0 001.779-1.07c-1.381-2.297-3.476-3.615-5.749-3.615-1.997 0-3.855 1.01-5.231 2.846a10.014 10.014 0 00-1.621 3.379H7.6a1.037 1.037 0 100 2.075h1.083a11.867 11.867 0 000 2.075H7.6a1.037 1.037 0 100 2.075h1.447a10.013 10.013 0 001.62 3.379c1.377 1.835 3.235 2.846 5.232 2.846 2.273 0 4.368-1.318 5.749-3.616a1.037 1.037 0 10-1.778-1.069c-.997 1.659-2.444 2.61-3.97 2.61-2.066 0-3.852-1.7-4.686-4.15h2.61a1.038 1.038 0 000-2.075h-3.058a10.034 10.034 0 010-2.075h3.059a1.037 1.037 0 100-2.075h-2.611c.834-2.451 2.62-4.15 4.685-4.15z" fill="#FF5C00"/></svg>