<svg width="61" height="63" fill="none" xmlns="http://www.w3.org/2000/svg"><g clip-path="url(#clip0)"><path d="M32.533 31.798c0-3.428 2.652-6.294 5.912-6.393a6.054 6.054 0 014.435 1.717 6.05 6.05 0 011.853 4.378h2.034a6.105 6.105 0 016.1-6.097c3.364 0 6.1 2.735 6.1 6.097H61C61 16.288 50.125 3.305 35.14.631L31.695.016a1.008 1.008 0 00-.358 0L27.89.631C12.908 3.305 2.033 16.288 2.033 31.5h2.034a6.105 6.105 0 016.1-6.097c3.364 0 6.1 2.735 6.1 6.097H18.3a6.104 6.104 0 016.1-6.097c3.364 0 6.1 2.735 6.1 6.097h.014c-.003.1-.014.198-.014.298v27.137a2.035 2.035 0 01-4.067 0v-2.032H24.4v2.032A4.07 4.07 0 0028.467 63a4.07 4.07 0 004.066-4.065v-4.064h2.033v-2.032h-2.033V31.798zm25.813-6.287a8.093 8.093 0 00-5.48-2.14 8.12 8.12 0 00-6.297 2.994c-.928-9.027-5.12-17.519-11.823-23.738l-.002-.002.04.007A29.298 29.298 0 0158.346 25.51zm-48.18-2.14a8.093 8.093 0 00-5.48 2.14A29.298 29.298 0 0128.25 2.63l.04-.006-.002.002c-6.702 6.22-10.895 14.711-11.823 23.738a8.12 8.12 0 00-6.297-2.994zm14.234 0a8.11 8.11 0 00-5.82 2.462c1.025-8.262 4.933-16.004 11.09-21.718l1.846-1.712 1.846 1.713c6.157 5.714 10.066 13.456 11.09 21.718-.053-.055-.101-.114-.156-.168-1.591-1.544-3.698-2.348-5.912-2.29-2.322.07-4.406 1.186-5.85 2.894V5.08H30.5v21.06a8.11 8.11 0 00-6.1-2.769z" fill="#FF5C00"/><path d="M52.569 32.814a1.012 1.012 0 00-.72-.298H37.618c-.563 0-1.017.455-1.017 1.016v28.452c0 .56.454 1.016 1.017 1.016h22.366c.562 0 1.017-.455 1.017-1.016V41.66c0-.269-.107-.528-.298-.718l-8.133-8.13zm.297 3.171l4.663 4.66h-4.663v-4.66zM38.633 60.968v-26.42h12.2v7.113c0 .561.455 1.016 1.017 1.016h7.117v18.29H38.633z" fill="#033A48"/><path d="M44.733 35.565h-4.066c-.562 0-1.017.455-1.017 1.016v4.064c0 .561.455 1.016 1.017 1.016h4.066c.563 0 1.017-.455 1.017-1.016v-4.064c0-.561-.454-1.017-1.017-1.017zm-1.016 4.064h-2.033v-2.032h2.033v2.032zm1.016 3.048h-4.066c-.562 0-1.017.456-1.017 1.016v4.065c0 .56.455 1.016 1.017 1.016h4.066c.563 0 1.017-.455 1.017-1.016v-4.065c0-.56-.454-1.016-1.017-1.016zm-1.016 4.065h-2.033V44.71h2.033v2.032zm1.016 3.048h-4.066c-.562 0-1.017.456-1.017 1.016v4.065c0 .56.455 1.016 1.017 1.016h4.066c.563 0 1.017-.455 1.017-1.016v-4.065c0-.56-.454-1.016-1.017-1.016zm-1.016 4.065h-2.033v-2.032h2.033v2.032zM54.9 56.483v-.596c0-.56-.454-1.016-1.017-1.016H51.85c-.27 0-.529.107-.719.298l-3.05 3.048 1.438 1.437 2.752-2.75h.596v2.031a1.016 1.016 0 001.735.719l4.067-4.065-1.438-1.436-2.33 2.33zm-8.133-4.661H48.8v2.033h-2.033v-2.032zm3.05 0h8.133v2.033h-8.133v-2.032zm-3.05-7.112H48.8v2.032h-2.033V44.71zm0-7.113H48.8v2.032h-2.033v-2.032zm3.05 7.113h8.133v2.032h-8.133V44.71zm-38.634-4.065C5.017 40.645 0 45.66 0 51.823 0 57.986 5.017 63 11.183 63c6.166 0 11.184-5.014 11.184-11.177 0-6.163-5.018-11.178-11.184-11.178zm-9.15 11.178c0-4.699 3.566-8.578 8.134-9.086v2.117c-1.75.454-3.05 2.032-3.05 3.92a4.07 4.07 0 004.066 4.065c1.122 0 2.034.911 2.034 2.032a2.035 2.035 0 01-4.067 0H7.117c0 1.888 1.3 3.466 3.05 3.92v2.117c-4.568-.507-8.134-4.387-8.134-9.085zM12.2 60.908V58.79c1.75-.454 3.05-2.032 3.05-3.92a4.07 4.07 0 00-4.067-4.064 2.035 2.035 0 01-2.033-2.033c0-1.12.912-2.032 2.033-2.032 1.122 0 2.034.912 2.034 2.032h2.033c0-1.888-1.3-3.466-3.05-3.92v-2.117c4.568.508 8.133 4.387 8.133 9.086 0 4.698-3.565 8.578-8.133 9.085z" fill="#033A48"/><path d="M4.067 50.806H6.1v2.033H4.067v-2.033zm12.2 0H18.3v2.033h-2.033v-2.033z" fill="#033A48"/></g><defs><clipPath id="clip0"><path fill="#fff" d="M0 0h61v63H0z"/></clipPath></defs></svg>