<svg width="40" height="32" fill="none" xmlns="http://www.w3.org/2000/svg"><path d="M16.804 9.143l.751-.272a4.585 4.585 0 003.016-4.3C20.571 2.051 18.521 0 16 0a4.585 4.585 0 00-4.3 3.016l-1.414 3.91-1.415-3.91A4.585 4.585 0 004.571 0 4.577 4.577 0 000 4.571a4.585 4.585 0 003.016 4.3l.751.272H0V32h39.01V9.143H16.804zm-2.954-5.35A2.293 2.293 0 0116 2.287a2.288 2.288 0 012.286 2.285c0 .96-.606 1.824-1.508 2.15l-4.588 1.66 1.66-4.587zm-11.564.778A2.288 2.288 0 014.57 2.286c.96 0 1.824.606 2.15 1.508l1.66 4.587-4.587-1.66a2.293 2.293 0 01-1.508-2.15zm34.438 25.143H11.429V27.43H9.143v2.285H2.286V11.43H8.15l-3.387 5.08 1.902 1.268 2.478-3.717v4.226h2.286V14.06l2.477 3.717 1.902-1.268-3.387-5.08h24.303v18.285z" fill="#033A48"/><path d="M21.714 20.571a3.432 3.432 0 003.429-3.429 3.432 3.432 0 00-3.429-3.428 3.432 3.432 0 00-3.428 3.428 3.432 3.432 0 003.428 3.429zm0-4.571c.63 0 1.143.512 1.143 1.142a1.144 1.144 0 01-2.286 0c0-.63.513-1.142 1.143-1.142zm5.715 8a3.432 3.432 0 003.428 3.428A3.432 3.432 0 0034.286 24a3.432 3.432 0 00-3.429-3.429A3.432 3.432 0 0027.43 24zM32 24a1.144 1.144 0 01-2.286 0A1.144 1.144 0 0132 24zm-11.17 1.576l9.148-11.43 1.785 1.428-9.147 11.43-1.785-1.428zM9.143 20.571h2.286v4.572H9.143V20.57z" fill="#033A48"/></svg>