<svg width="23" height="31" fill="none" xmlns="http://www.w3.org/2000/svg"><path d="M10.51 13.433c0 .397.25.752.623.881l1.38.481a2.931 2.931 0 011.954 2.772c0 1.291-.83 2.39-1.978 2.78v.93c0 .553-.443 1-.989 1a.995.995 0 01-.99-1v-.93a2.934 2.934 0 01-1.977-2.78c0-.552.442-1 .989-1 .546 0 .989.448.989 1a.93.93 0 00.922.933h.134a.929.929 0 00.922-.933.932.932 0 00-.622-.881l-1.38-.481a2.931 2.931 0 01-1.954-2.772c0-1.291.83-2.389 1.978-2.78v-.93c0-.553.443-1 .989-1s.99.447.99 1v.93a2.934 2.934 0 011.977 2.78c0 .552-.442 1-.989 1a.995.995 0 01-.989-1 .929.929 0 00-.922-.932h-.134a.928.928 0 00-.922.932zM22.876 1v29c0 .843-.972 1.308-1.617.773l-2.834-2.354-2.834 2.354a.981.981 0 01-1.256 0L11.5 28.418l-2.834 2.354a.981.981 0 01-1.256 0l-2.834-2.354-2.834 2.354c-.643.534-1.617.071-1.617-.773V1c0-.841.971-1.308 1.617-.772l2.834 2.353L7.41.229a.98.98 0 011.256 0L11.5 2.582 14.334.229a.981.981 0 011.256 0l2.834 2.353L21.258.229c.643-.535 1.617-.072 1.617.772zm-1.978 2.116l-1.845 1.532a.981.981 0 01-1.256 0l-2.834-2.354-2.834 2.354a.981.981 0 01-1.256 0L8.038 2.295 5.204 4.65a.98.98 0 01-1.256 0L2.103 3.117v24.767l1.845-1.532a.981.981 0 011.256 0l2.834 2.353 2.834-2.353a.981.981 0 011.256 0l2.834 2.353 2.834-2.353a.981.981 0 011.256 0l1.845 1.532V3.117z" fill="#033A48"/></svg>