<svg width="36" height="31" fill="none" xmlns="http://www.w3.org/2000/svg"><g clip-path="url(#clip0)" fill="#033A48"><path d="M19.161 21.17c0 5.357-4.298 9.716-9.58 9.716C4.298 30.886 0 26.528 0 21.17s4.298-9.717 9.58-9.717c5.283 0 9.581 4.359 9.581 9.717zm-2.322 0c0-4.06-3.256-7.362-7.258-7.362-4.003 0-7.258 3.303-7.258 7.362s3.255 7.36 7.258 7.36c4.002 0 7.258-3.301 7.258-7.36zm18 7.36h-.799V9.098c0-.65-.52-1.177-1.161-1.177a1.17 1.17 0 00-1.161 1.177v19.434h-5.88V13.809a1.17 1.17 0 00-1.16-1.178 1.17 1.17 0 00-1.162 1.178V28.53h-4.935a1.17 1.17 0 00-1.162 1.178c0 .65.52 1.177 1.162 1.177h16.258A1.17 1.17 0 0036 29.71a1.17 1.17 0 00-1.161-1.178zM17.878 12.802l4.15-4.21 1.828 1.854a1.15 1.15 0 001.643 0l6.219-6.307v.543c0 .65.52 1.178 1.161 1.178a1.17 1.17 0 001.161-1.18c0-3.738.006-3.42-.012-3.553a1.175 1.175 0 00-.705-.922c-.287-.12-.198-.09-3.783-.09a1.17 1.17 0 00-1.161 1.179c0 .65.52 1.177 1.161 1.177h.536l-5.399 5.475-1.828-1.854a1.15 1.15 0 00-1.642 0l-4.972 5.042a1.19 1.19 0 000 1.666 1.15 1.15 0 001.643 0z"/><path d="M12.194 20.711c.377-.426.606-.987.606-1.602 0-.642-.249-1.247-.7-1.703a2.355 2.355 0 00-1.685-.708h-.3V15.5H8.888v1.198h-2.7v1.24h1.001v6.533H6.187v1.24h2.701v1.199h1.227v-1.198h.627c1.482 0 2.688-1.219 2.688-2.717a2.712 2.712 0 00-1.236-2.284zm-3.778-2.773h2c.306 0 .597.123.816.345.22.222.341.515.34.826 0 .639-.508 1.16-1.138 1.17H8.416v-2.34zm2.326 6.534H8.416v-2.953h2.326c.388 0 .754.154 1.031.434.277.28.43.65.43 1.042a1.47 1.47 0 01-1.46 1.476z"/></g><defs><clipPath id="clip0"><path fill="#fff" d="M0 0h36v31H0z"/></clipPath></defs></svg>