<svg width="31" height="31" fill="none" xmlns="http://www.w3.org/2000/svg"><g clip-path="url(#clip0)" fill="#033A48"><path d="M29.184 15.5c0-.297-.01-.596-.03-.896l1.666-1.524-.096-.499a15.697 15.697 0 00-1.192-3.668l-.215-.46-2.243-.254A13.784 13.784 0 0026.02 6.75l.452-2.213-.371-.347a15.7 15.7 0 00-3.12-2.267l-.445-.245-1.962 1.111a13.63 13.63 0 00-1.707-.554L17.933.182l-.505-.063a15.714 15.714 0 00-3.856 0l-.505.063-.934 2.053c-.58.147-1.151.332-1.707.554L8.464 1.678l-.444.245A15.695 15.695 0 004.9 4.19l-.372.347.452 2.213c-.382.46-.735.945-1.054 1.449l-2.243.254-.215.46a15.711 15.711 0 00-1.192 3.668l-.096.5 1.666 1.524a13.834 13.834 0 000 1.79L.18 17.92l.096.499a15.688 15.688 0 001.192 3.668l.215.46 2.243.254c.319.504.672.99 1.054 1.449l-.452 2.213.371.347a15.697 15.697 0 003.12 2.267l.445.245 1.962-1.111c.556.222 1.127.407 1.707.554l.934 2.053.505.063a15.688 15.688 0 003.856 0l.505-.063.934-2.053a13.64 13.64 0 001.707-.554l1.962 1.111.444-.245a15.693 15.693 0 003.12-2.267l.372-.347-.452-2.213c.382-.46.735-.945 1.054-1.449l2.242-.254.216-.46a15.69 15.69 0 001.192-3.668l.096-.499-1.666-1.525c.02-.299.03-.598.03-.895zm-1.875-1.176a12.06 12.06 0 010 2.352l-.044.453 1.571 1.438a13.867 13.867 0 01-.744 2.29l-2.116.24-.23.393a11.937 11.937 0 01-1.383 1.9l-.303.34.427 2.09a13.846 13.846 0 01-1.95 1.416l-1.852-1.05-.416.183a11.8 11.8 0 01-2.237.727l-.445.096-.882 1.939c-.802.07-1.608.07-2.41 0l-.882-1.939-.445-.096a11.8 11.8 0 01-2.236-.727l-.417-.183-1.852 1.05a13.82 13.82 0 01-1.95-1.416l.427-2.09-.303-.34a11.927 11.927 0 01-1.383-1.9l-.23-.392-2.115-.24a13.875 13.875 0 01-.745-2.291l1.571-1.439-.044-.452a12.06 12.06 0 010-2.352l.044-.453-1.571-1.438a13.878 13.878 0 01.744-2.29l2.116-.24.23-.393a11.93 11.93 0 011.383-1.9l.303-.34-.427-2.09a13.857 13.857 0 011.95-1.416l1.852 1.05.417-.183c.717-.316 1.47-.56 2.236-.727l.445-.096.882-1.939c.802-.07 1.607-.07 2.41 0l.882 1.939.445.096c.766.167 1.519.411 2.236.727l.417.183 1.852-1.05a13.847 13.847 0 011.95 1.416l-.427 2.09.303.34c.522.586.987 1.225 1.383 1.9l.23.393 2.115.24a13.827 13.827 0 01.745 2.29l-1.571 1.438.044.453z"/><path d="M15.5 5.45C9.958 5.45 5.45 9.957 5.45 15.5c0 5.542 4.508 10.05 10.05 10.05 5.542 0 10.05-4.508 10.05-10.05 0-5.542-4.508-10.05-10.05-10.05zm0 18.284c-4.54 0-8.234-3.694-8.234-8.234S10.96 7.266 15.5 7.266s8.234 3.694 8.234 8.234-3.694 8.234-8.234 8.234z"/><path d="M15.5 11.867a3.637 3.637 0 00-3.633 3.633 3.637 3.637 0 003.633 3.633 3.637 3.637 0 003.633-3.633 3.637 3.637 0 00-3.633-3.633zm0 5.45a1.818 1.818 0 01-1.816-1.817 1.817 1.817 0 013.632 0 1.818 1.818 0 01-1.816 1.816z"/></g><defs><clipPath id="clip0"><path fill="#fff" d="M0 0h31v31H0z"/></clipPath></defs></svg>