<svg width="31" height="31" fill="none" xmlns="http://www.w3.org/2000/svg"><g clip-path="url(#clip0)" fill="#033A48"><path d="M12.4 11.367c-1.12 0-2.067-.71-2.067-1.55 0-.842.947-1.55 2.067-1.55.562 0 1.087.173 1.477.491.443.36 1.092.296 1.453-.148a1.03 1.03 0 00-.148-1.453 4.226 4.226 0 00-1.749-.827V5.167a1.034 1.034 0 00-2.066 0v1.161c-1.778.405-3.1 1.808-3.1 3.489 0 1.994 1.853 3.616 4.133 3.616 1.12 0 2.066.709 2.066 1.55 0 .841-.946 1.55-2.066 1.55-.562 0-1.087-.174-1.478-.492a1.032 1.032 0 00-1.453.149 1.032 1.032 0 00.15 1.455 4.247 4.247 0 001.748.825v1.163a1.034 1.034 0 002.066 0v-1.161c1.777-.405 3.1-1.809 3.1-3.489 0-1.994-1.854-3.617-4.133-3.617z"/><path d="M30.698 29.237L21.86 20.4a12.347 12.347 0 002.939-8C24.8 5.562 19.238 0 12.4 0 5.56 0 0 5.562 0 12.4c0 6.839 5.561 12.4 12.4 12.4 3.048 0 5.836-1.11 7.998-2.939l8.837 8.837a1.038 1.038 0 001.463 0 1.034 1.034 0 000-1.46zM12.4 22.733c-5.698 0-10.333-4.635-10.333-10.333 0-5.697 4.635-10.333 10.333-10.333 5.697 0 10.333 4.636 10.333 10.333 0 5.698-4.636 10.333-10.333 10.333z"/></g><defs><clipPath id="clip0"><path fill="#fff" d="M0 0h31v31H0z"/></clipPath></defs></svg>