<svg width="36" height="36" fill="none" xmlns="http://www.w3.org/2000/svg"><path d="M29.69 18.821h-6.122v6.302h6.121v-6.302zm-2.11 4.193h-1.902v-2.083h1.902v2.083zm-11.99 2.109h6.12V14.938h-6.12v10.185zm2.108-8.075h1.903v5.966h-1.902v-5.966zM7.647 12.655v12.468h6.12V12.609h2.123l-5.138-6.277-5.246 6.323h2.14zm2.11-1.82l.984-1.186.918 1.12v12.245H9.755V10.835z" fill="#033A48"/><path d="M36 4.734v-2.11H19.055V0h-2.11v2.625H0v2.11h1.679V27.57H0v2.11h11.705l-3.208 5.05 1.781 1.131 3.926-6.181h2.741V36h2.11v-6.32h2.741l3.926 6.182 1.78-1.13-3.207-5.051H36v-2.11h-1.679V4.734H36zm-3.788 22.837H3.788V4.734h28.424v22.837z" fill="#033A48"/><path d="M24.087 6.946h5.82v2.11h-5.82v-2.11zm0 4.219h5.82v2.109h-5.82v-2.11z" fill="#033A48"/></svg>