<svg width="23" height="31" fill="none" xmlns="http://www.w3.org/2000/svg"><g clip-path="url(#clip0)" fill="#033A48"><path d="M17.444 1.812A10.677 10.677 0 0011.191.005C5.374.218.742 5.05.657 10.992a11.191 11.191 0 001.787 6.17 14.996 14.996 0 012.55 8.096v.207c0 .611.485 1.107 1.084 1.107h10.84c.6 0 1.085-.496 1.085-1.107v-.205a15.135 15.135 0 012.565-8.122c3.282-5.113 1.884-11.975-3.124-15.326zm1.311 14.11a17.701 17.701 0 00-2.893 8.436h-3.28V13.746l2.935-2.996c.416-.44.404-1.14-.027-1.565a1.068 1.068 0 00-1.506 0l-2.486 2.538-2.486-2.538a1.068 1.068 0 00-1.533.027 1.124 1.124 0 000 1.538l2.935 2.996v10.612h-3.28a17.52 17.52 0 00-2.881-8.413 8.943 8.943 0 01-1.428-4.936c.035-4.89 3.946-8.827 8.736-8.791a8.582 8.582 0 015.984 2.508c2.976 2.955 3.483 7.65 1.21 11.197zM14.75 28.786H8.247c-.599 0-1.084.496-1.084 1.107S7.647 31 8.246 31h6.505c.598 0 1.084-.495 1.084-1.107 0-.611-.486-1.107-1.085-1.107z"/></g><defs><clipPath id="clip0"><path fill="#fff" d="M0 0h23v31H0z"/></clipPath></defs></svg>