<svg width="36" height="36" fill="none" xmlns="http://www.w3.org/2000/svg"><path d="M34.945 25.383h-1.054V2.109h1.054a1.055 1.055 0 100-2.109H1.055a1.055 1.055 0 100 2.11h1.054v23.273H1.055a1.055 1.055 0 100 2.11h15.89v2.36a3.17 3.17 0 00-2.11 2.983A3.168 3.168 0 0018 36a3.168 3.168 0 003.164-3.164 3.17 3.17 0 00-2.11-2.983v-2.36h15.891a1.055 1.055 0 100-2.11zM18 33.89a1.056 1.056 0 01-1.055-1.055 1.056 1.056 0 012.11 0c0 .581-.474 1.055-1.055 1.055zM31.781 2.109v2.18H4.22V2.11h27.56zM4.22 6.4h27.56v18.984H4.22V6.398z" fill="#033A48"/><path d="M20.11 21.164a1.055 1.055 0 100-2.11h-8.577l2.412-3.617 1.2 1.2a1.053 1.053 0 001.623-.161l4.219-6.328a1.054 1.054 0 10-1.755-1.17l-3.505 5.257-1.2-1.2a1.053 1.053 0 00-1.623.161l-2.287 3.43V9.563a1.055 1.055 0 10-2.11 0v9.492H7.454a1.055 1.055 0 100 2.11h1.055v1.054a1.055 1.055 0 102.11 0v-1.055h9.491zm4.218-8.437h4.219a1.055 1.055 0 100-2.11h-4.219a1.055 1.055 0 100 2.11zm0 4.218h4.219a1.055 1.055 0 100-2.11h-4.219a1.055 1.055 0 100 2.11zm0 4.219h4.219a1.055 1.055 0 100-2.11h-4.219a1.055 1.055 0 100 2.11z" fill="#033A48"/></svg>