<svg width="20" height="21" fill="none" xmlns="http://www.w3.org/2000/svg"><path d="M17.217 1.442a2.496 2.496 0 00-3.648 0l-.914.964L2.933 12.61l-.02.022c-.005.005-.005.01-.01.01-.011.017-.027.033-.037.05 0 .004-.005.004-.005.01-.01.016-.015.027-.026.043-.005.006-.005.011-.01.017l-.016.043c0 .005-.005.005-.005.01L.647 19.626a.552.552 0 00.124.553.507.507 0 00.532.13l6.481-2.27c.005 0 .005 0 .01-.005a.186.186 0 00.047-.022.018.018 0 00.01-.005c.015-.011.036-.022.052-.033.015-.01.03-.027.046-.038.005-.006.01-.006.01-.01.006-.006.016-.012.021-.023L18.615 6.736c1.007-1.059 1.007-2.773 0-3.831l-1.398-1.463zM7.619 16.765l-3.592-3.771 8.99-9.439 3.59 3.771-8.988 9.439zM3.52 13.996l3.14 3.294-4.711 1.647 1.573-4.941zm14.367-8.02l-.547.58-3.592-3.77.552-.58a1.496 1.496 0 012.188 0l1.404 1.474c.6.637.597 1.663-.005 2.297z" fill="#033A48" stroke="#033A48" stroke-width=".5"/></svg>