<svg width="21" height="21" fill="none" xmlns="http://www.w3.org/2000/svg"><path d="M17.925 13.575a10.46 10.46 0 00-3.99-2.502A6.068 6.068 0 0016.57 6.07 6.077 6.077 0 0010.5 0a6.077 6.077 0 00-6.07 6.07 6.068 6.068 0 002.635 5.003 10.46 10.46 0 00-3.99 2.502A10.431 10.431 0 000 21h1.64c0-4.885 3.975-8.86 8.86-8.86s8.86 3.975 8.86 8.86H21c0-2.805-1.092-5.441-3.075-7.425zM10.5 10.5a4.435 4.435 0 01-4.43-4.43 4.435 4.435 0 014.43-4.43 4.435 4.435 0 014.43 4.43 4.435 4.435 0 01-4.43 4.43z" fill="#A5A5A5"/></svg>