<svg width="61" height="61" fill="none" xmlns="http://www.w3.org/2000/svg"><path d="M48.147 43.245c1.08 0 1.96.88 1.96 1.96h1.961c0-1.821-1.254-3.344-2.941-3.782v-2.1h-1.96v1.961h-2.942v3.921a3.925 3.925 0 003.922 3.922c1.08 0 1.96.88 1.96 1.96v1.961h-1.96a1.963 1.963 0 01-1.961-1.96h-1.96c0 1.821 1.253 3.343 2.94 3.782v2.1h1.96v-1.961h2.942v-3.922a3.925 3.925 0 00-3.921-3.92 1.963 1.963 0 01-1.961-1.962v-1.96h1.96z" fill="#FF5C00"/><path d="M48.574 35.423l-8.27-8.27-17.647 17.646-6.862-6.862L2.07 51.662v-6.05l13.725-13.726 3.921 3.922 17.115-17.116c2.123 4.096 6.393 6.906 11.315 6.906 7.028 0 12.745-5.717 12.745-12.744 0-7.028-5.717-12.745-12.745-12.745-7.027 0-12.744 5.717-12.744 12.745 0 1.354.216 2.66.61 3.886L19.717 33.035l-3.921-3.921L2.07 42.839V23.638h5.882v-1.961H2.07v-1.961h7.842v-1.96H2.07v-1.961h5.882v-1.961H2.07v-1.96h7.842V9.911H2.07v-1.96h5.882V5.99H2.07V4.03h7.842V2.07H2.07V.109H.109V60.89h48.037c7.028 0 12.745-5.717 12.745-12.745 0-6.883-5.489-12.494-12.317-12.723zM48.146 2.07c5.946 0 10.784 4.838 10.784 10.784 0 5.945-4.838 10.784-10.784 10.784-5.946 0-10.784-4.839-10.784-10.785 0-5.945 4.838-10.783 10.784-10.783zM29.52 40.71v18.22h-3.922v-14.3l3.922-3.92zm-5.883 5.882V58.93h-3.921v-14.3l2.941 2.942.98-.98zm-5.882-3.922v16.26h-3.921V42.67l1.96-1.96 1.961 1.96zm-5.882 16.26H7.952V48.552l3.921-3.921v14.3zM2.07 54.434l3.921-3.921v8.417H2.07v-4.496zm29.41 4.496V38.75l8.823-8.824 5.676 5.676c-5.997 1.033-10.577 6.258-10.577 12.545 0 4.543 2.396 8.527 5.984 10.784H31.48zm16.666 0c-5.946 0-10.784-4.838-10.784-10.784 0-5.946 4.838-10.784 10.784-10.784 5.946 0 10.784 4.838 10.784 10.784 0 5.946-4.838 10.784-10.784 10.784z" fill="#033A48"/><path d="M48.147 17.755a1.963 1.963 0 01-1.961-1.96h-1.96c0 1.821 1.253 3.344 2.94 3.782v2.1h1.96v-1.961h2.942v-3.921a3.925 3.925 0 00-3.921-3.922 1.963 1.963 0 01-1.961-1.96V7.951h1.96c1.082 0 1.961.88 1.961 1.96h1.961c0-1.821-1.254-3.344-2.941-3.782v-2.1h-1.96V5.99h-2.942v3.921a3.925 3.925 0 003.922 3.922c1.08 0 1.96.88 1.96 1.96v1.961h-1.96zM17.7 11.95l.77-7.169h7.637v2.051h-5.664l-.39 3.398c.657-.377 1.4-.566 2.226-.566 1.355 0 2.406.433 3.155 1.299.755.866 1.132 2.031 1.132 3.496 0 1.445-.416 2.598-1.25 3.457-.833.853-1.976 1.28-3.427 1.28-1.302 0-2.383-.369-3.242-1.104-.853-.742-1.316-1.719-1.387-2.93h2.295c.09.69.338 1.22.742 1.592.404.364.93.547 1.582.547.73 0 1.295-.26 1.7-.781.41-.521.614-1.23.614-2.13 0-.865-.224-1.549-.674-2.05-.449-.508-1.067-.762-1.855-.762-.43 0-.794.059-1.094.176-.3.11-.625.332-.976.664l-1.895-.469z" fill="#FF5C00"/></svg>