<svg width="27" height="31" fill="none" xmlns="http://www.w3.org/2000/svg"><path d="M22.46 20.04h-4.48v-.908c0-1.135-.688-2.11-1.664-2.519.34-2.063.884-3.996 2.636-7.112a6.42 6.42 0 00.82-3.145c0-3.516-2.816-6.382-6.332-6.356-3.12.024-5.572 2.332-6.096 5.113-.323 1.72.03 3.447.997 4.86 1.326 1.94 1.964 4.337 2.343 6.64a2.729 2.729 0 00-1.664 2.52v.907H4.54c-2.471 0-4.481 2.038-4.481 4.542v1.877c0 .501.401.908.896.908h.896v.908C1.851 29.778 3.057 31 4.54 31h17.922c1.482 0 2.688-1.222 2.688-2.725v-.908h.896a.902.902 0 00.896-.908v-1.877c0-2.504-2.01-4.542-4.48-4.542zM9.815 8.94c-.69-1.01-.942-2.248-.71-3.486.366-1.94 2.123-3.665 4.456-3.639 2.456.028 4.42 2.067 4.42 4.542 0 .789-.202 1.565-.585 2.245-1.871 3.328-2.472 5.433-2.862 7.806h-2.066c-.432-2.626-1.14-5.256-2.653-7.468zm6.374 10.193v.908h-5.376v-.908c0-.5.402-.908.896-.908h3.584c.494 0 .896.407.896.908zm7.169 9.143a.904.904 0 01-.896.909H4.539a.903.903 0 01-.896-.909v-.908h19.714v.908zm1.792-2.724H1.85v-.97c0-1.502 1.206-2.724 2.688-2.724H22.46c1.482 0 2.688 1.222 2.688 2.725v.968z" fill="#033A48"/></svg>