<svg width="25" height="31" fill="none" xmlns="http://www.w3.org/2000/svg"><path d="M22.74 5.39C20.387 1.965 16.654 0 12.5 0 8.349 0 4.617 1.965 2.26 5.39-.083 8.798-.625 13.112.81 16.924c.383 1.04.993 2.052 1.808 3l9.061 10.694a1.076 1.076 0 001.643 0l9.058-10.691c.819-.953 1.428-1.964 1.808-2.996 1.438-3.819.896-8.133-1.447-11.541zm-.572 10.782c-.293.796-.772 1.584-1.423 2.342a.035.035 0 00-.005.005l-8.24 9.725-8.244-9.73c-.65-.758-1.13-1.545-1.426-2.35-1.186-3.152-.736-6.72 1.205-9.541C5.98 3.792 9.067 2.168 12.5 2.168s6.518 1.624 8.465 4.455c1.94 2.822 2.391 6.39 1.202 9.549z" fill="#033A48"/><path d="M12.5 6.431c-3.33 0-6.04 2.723-6.04 6.07 0 3.347 2.71 6.07 6.04 6.07 3.332 0 6.041-2.723 6.041-6.07 0-3.347-2.71-6.07-6.04-6.07zm0 9.972c-2.14 0-3.883-1.75-3.883-3.902S10.36 8.599 12.5 8.599c2.142 0 3.884 1.75 3.884 3.902s-1.742 3.902-3.883 3.902z" fill="#033A48"/></svg>