<svg width="31" height="31" fill="none" xmlns="http://www.w3.org/2000/svg"><path d="M28.275.969H2.725A2.728 2.728 0 000 3.693v18.164a2.728 2.728 0 002.725 2.725h7.882l-1.21 3.633h-2.98a.908.908 0 100 1.816h18.164a.908.908 0 100-1.816h-2.978l-1.211-3.633h7.882A2.728 2.728 0 0031 21.857V3.693A2.728 2.728 0 0028.275.97zM11.311 28.215l1.21-3.633h5.957l1.211 3.633h-8.378zm17.873-6.358a.91.91 0 01-.909.909H2.725a.91.91 0 01-.909-.909v-.908h27.368v.908zm-19.28-7.944l-.826-.826 1.284-1.284.826.826a.908.908 0 001.104.14 6.28 6.28 0 011.62-.674c.4-.104.68-.465.68-.88v-1.164h1.816v1.165c0 .414.28.775.68.879a6.3 6.3 0 011.62.674c.357.21.81.153 1.103-.14l.826-.826 1.285 1.284-.826.826a.908.908 0 00-.14 1.104c.3.51.527 1.055.674 1.619.103.4.465.68.879.68h1.165v1.817h-3.725a4.546 4.546 0 00-4.45-5.45 4.546 4.546 0 00-4.448 5.45H7.326v-1.817h1.165a.91.91 0 00.88-.68 6.3 6.3 0 01.673-1.62.909.909 0 00-.14-1.103zm8.32 4.312c0 .31-.053.618-.155.908h-5.137A2.728 2.728 0 0115.5 15.5a2.728 2.728 0 012.724 2.725zm10.96.908H25.49v-2.725a.908.908 0 00-.908-.908h-1.403a8.153 8.153 0 00-.324-.778l.994-.993a.908.908 0 000-1.284l-2.57-2.569a.908.908 0 00-1.284 0l-.993.993a8.102 8.102 0 00-.777-.323V9.143a.908.908 0 00-.909-.909h-3.632a.908.908 0 00-.909.909v1.403a8.102 8.102 0 00-.777.323l-.993-.993a.908.908 0 00-1.285 0l-2.568 2.569a.908.908 0 000 1.284l.993.994c-.122.254-.23.513-.324.777H6.418a.908.908 0 00-.908.908v2.725H1.816V3.693c0-.5.408-.908.909-.908h25.55a.91.91 0 01.909.908v15.44z" fill="#033A48"/><path d="M24.582 4.602a2.728 2.728 0 00-2.725 2.724 2.728 2.728 0 002.725 2.725 2.728 2.728 0 002.725-2.725 2.728 2.728 0 00-2.725-2.724zm0 3.632a.91.91 0 010-1.816.91.91 0 010 1.816z" fill="#033A48"/></svg>