<svg width="33" height="24" fill="none" xmlns="http://www.w3.org/2000/svg"><g clip-path="url(#clip0)"><path d="M29.806.005H3.195C1.433.005 0 1.41 0 3.135v17.733c0 1.725 1.433 3.13 3.194 3.13h26.612c1.761 0 3.194-1.405 3.194-3.13V3.135c0-1.726-1.433-3.13-3.194-3.13zm1.065 20.863c0 .575-.478 1.043-1.064 1.043H3.194a1.055 1.055 0 01-1.065-1.043V3.135c0-.575.478-1.043 1.065-1.043h26.612c.587 0 1.065.468 1.065 1.043v17.733zm-23.952-9.91h2.13c1.467 0 2.66-1.17 2.66-2.608V6.264c0-1.438-1.193-2.608-2.66-2.608h-2.13c-1.467 0-2.66 1.17-2.66 2.608V8.35c0 1.438 1.193 2.608 2.66 2.608zm-.532-4.694c0-.287.239-.521.532-.521h2.13c.293 0 .532.234.532.521V8.35a.528.528 0 01-.533.522H6.92a.528.528 0 01-.532-.522V6.264zm-2.129 7.824c0-.576.477-1.044 1.065-1.044h1.596c.588 0 1.065.467 1.065 1.043 0 .577-.477 1.044-1.065 1.044H5.323a1.054 1.054 0 01-1.065-1.043zm22.887 0c0 .576-.476 1.043-1.064 1.043h-1.597a1.054 1.054 0 01-1.065-1.043c0-.576.477-1.044 1.065-1.044h1.597c.588 0 1.064.467 1.064 1.043zm-12.242 0c0 .576-.476 1.043-1.064 1.043h-3.194a1.054 1.054 0 01-1.064-1.043c0-.576.476-1.044 1.064-1.044h3.194c.588 0 1.064.467 1.064 1.043zm6.92 0c0 .576-.477 1.043-1.065 1.043h-3.194a1.054 1.054 0 01-1.064-1.043c0-.576.477-1.044 1.064-1.044h3.194c.588 0 1.065.467 1.065 1.043zm-8.317 4.172c0 .576-.476 1.043-1.065 1.043H5.323a1.054 1.054 0 01-1.065-1.043c0-.576.477-1.043 1.065-1.043h7.118c.588 0 1.065.467 1.065 1.043z" fill="#033A48"/></g><defs><clipPath id="clip0"><path fill="#fff" d="M0 0h33v24H0z"/></clipPath></defs></svg>