<svg width="22" height="22" fill="none" xmlns="http://www.w3.org/2000/svg"><g clip-path="url(#clip0)" fill="#033A48"><path d="M20.559 9.152h-3.39V2.659c0-.992-.808-1.8-1.8-1.8H1.756c-.992 0-1.799.808-1.799 1.8v9.927c0 .992.807 1.799 1.8 1.799h1.322l.96 3.84a.66.66 0 001.15.26l3.382-4.1h1.77v2.596a1.4 1.4 0 001.399 1.398h4.45l2.12 2.572a.66.66 0 001.15-.26l.578-2.312h.52a1.4 1.4 0 001.4-1.398V10.55a1.4 1.4 0 00-1.4-1.398zm-12.3 3.913a.66.66 0 00-.508.24l-2.748 3.33-.768-3.07a.66.66 0 00-.64-.5H1.756a.48.48 0 01-.479-.48V2.66a.48.48 0 01.48-.48h13.612a.48.48 0 01.479.48v9.927a.48.48 0 01-.48.479H8.26zm12.378 3.916a.078.078 0 01-.078.078h-1.036a.66.66 0 00-.64.5l-.386 1.543-1.487-1.803a.66.66 0 00-.51-.24h-4.76a.078.078 0 01-.078-.078v-2.596h3.707c.992 0 1.799-.807 1.799-1.8v-2.113h3.39c.044 0 .079.035.079.078v6.431z"/><path d="M10.674 11.369a.658.658 0 01-.307-.076l-1.804-.948-1.804.948a.66.66 0 01-.958-.696l.344-2.009-1.46-1.422a.66.66 0 01.367-1.126l2.017-.293.902-1.828a.66.66 0 011.183 0l.902 1.828 2.017.293a.66.66 0 01.366 1.126l-1.46 1.422.345 2.009a.66.66 0 01-.65.772zM6.565 7.154l.75.731a.66.66 0 01.19.585l-.177 1.032.927-.487a.66.66 0 01.615 0l.927.487L9.62 8.47a.66.66 0 01.19-.585l.75-.731-1.037-.15a.66.66 0 01-.497-.362l-.463-.94-.464.94a.66.66 0 01-.497.361l-1.037.151z"/></g><defs><clipPath id="clip0"><path fill="#fff" d="M0 0h22v22H0z"/></clipPath></defs></svg>