<svg width="12" height="12" fill="none" xmlns="http://www.w3.org/2000/svg"><path d="M9.108 12a.938.938 0 01-.453-.117L6 10.428l-2.656 1.455a.938.938 0 01-1.023-.077c-.3-.226-.449-.61-.386-.99l.507-3.084L.293 5.548A1.045 1.045 0 01.047 4.51a.984.984 0 01.785-.69l2.969-.45L5.129.565A.969.969 0 016 0c.37 0 .708.219.871.565L8.2 3.37l2.969.45c.366.055.67.323.784.69.115.366.02.77-.245 1.038l-2.15 2.184.507 3.083c.063.38-.087.765-.386.991a.942.942 0 01-.571.194zM3.06 5.53l1.104 1.123c.23.233.334.568.28.897l-.261 1.584 1.365-.748a.936.936 0 01.904 0l1.365.748-.26-1.584a1.04 1.04 0 01.279-.897L8.94 5.53 7.414 5.3a.975.975 0 01-.732-.554L6 3.303l-.682 1.442a.976.976 0 01-.732.554L3.06 5.53z" fill="#033A48"/></svg>