<svg width="61" height="61" viewBox="0 0 61 61" fill="none" xmlns="http://www.w3.org/2000/svg">
<path d="M48.1464 43.2447C49.2277 43.2447 50.1071 44.1241 50.1071 45.2054H52.0678C52.0678 43.3839 50.814 41.8614 49.1268 41.4232V39.3232H47.166V41.284H44.225V45.2054C44.225 47.3681 45.9837 49.1268 48.1464 49.1268C49.2277 49.1268 50.1071 50.0062 50.1071 51.0875V53.0482H48.1464C47.0651 53.0482 46.1857 52.1689 46.1857 51.0875H44.225C44.225 52.909 45.4789 54.4315 47.166 54.8698V56.9697H49.1268V55.009H52.0678V51.0875C52.0678 48.9249 50.3091 47.1661 48.1464 47.1661C47.0651 47.1661 46.1857 46.2867 46.1857 45.2054V43.2447H48.1464Z" fill="#FF5C00"/>
<path d="M48.5738 35.4233L40.3035 27.153L22.6571 44.7994L15.7946 37.9369L2.0696 51.6619V45.6112L15.7946 31.8862L19.716 35.8076L36.8311 18.6925C38.9536 22.7885 43.224 25.5982 48.1464 25.5982C55.1736 25.5982 60.891 19.8807 60.891 12.8535C60.891 5.82633 55.1736 0.108887 48.1464 0.108887C41.1192 0.108887 35.4017 5.82633 35.4017 12.8535C35.4017 14.2084 35.6184 15.5132 36.0125 16.7397L19.716 33.0352L15.7946 29.1137L2.0696 42.8387V23.6375H7.95174V21.6767H2.0696V19.716H9.91246V17.7553H2.0696V15.7946H7.95174V13.8339H2.0696V11.8732H9.91246V9.91246H2.0696V7.95174H7.95174V5.99103H2.0696V4.03032H9.91246V2.0696H2.0696V0.108887H0.108887V60.891H48.1464C55.1736 60.891 60.891 55.1736 60.891 48.1464C60.891 41.2633 55.402 35.6517 48.5738 35.4233ZM48.1464 2.0696C54.0923 2.0696 58.9303 6.90766 58.9303 12.8535C58.9303 18.7994 54.0923 23.6375 48.1464 23.6375C42.2005 23.6375 37.3625 18.7994 37.3625 12.8535C37.3625 6.90766 42.2005 2.0696 48.1464 2.0696ZM29.5196 40.7094V58.9303H25.5982V44.6308L29.5196 40.7094ZM23.6375 46.5915V58.9303H19.716V44.6308L22.6571 47.5719L23.6375 46.5915ZM17.7553 42.6701V58.9303H13.8339V42.6701L15.7946 40.7094L17.7553 42.6701ZM11.8732 58.9303H7.95174V48.5523L11.8732 44.6308V58.9303ZM2.0696 54.4344L5.99103 50.513V58.9303H2.0696V54.4344ZM31.4803 58.9303V38.7487L40.3035 29.9255L45.9788 35.6008C39.982 36.6341 35.4017 41.8594 35.4017 48.1464C35.4017 52.6894 37.7977 56.6735 41.3858 58.9303H31.4803ZM48.1464 58.9303C42.2005 58.9303 37.3625 54.0923 37.3625 48.1464C37.3625 42.2005 42.2005 37.3625 48.1464 37.3625C54.0923 37.3625 58.9303 42.2005 58.9303 48.1464C58.9303 54.0923 54.0923 58.9303 48.1464 58.9303Z" fill="#033A48"/>
<path d="M48.1464 17.7553C47.0651 17.7553 46.1857 16.8759 46.1857 15.7946H44.225C44.225 17.6161 45.4789 19.1386 47.166 19.5768V21.6767H49.1268V19.716H52.0678V15.7946C52.0678 13.6319 50.3091 11.8731 48.1464 11.8731C47.0651 11.8731 46.1857 10.9938 46.1857 9.91242V7.9517H48.1464C49.2277 7.9517 50.1071 8.83108 50.1071 9.91242H52.0678C52.0678 8.09091 50.814 6.56842 49.1268 6.1302V4.03027H47.166V5.99099H44.225V9.91242C44.225 12.0751 45.9837 13.8338 48.1464 13.8338C49.2277 13.8338 50.1071 14.7132 50.1071 15.7946V17.7553H48.1464Z" fill="#FF5C00"/>
<path d="M25.0918 13.9316H26.8594V15.8359H25.0918V19H22.7188V15.8359H16.5762L16.5078 14.3906L22.6406 4.78125H25.0918V13.9316ZM18.998 13.9316H22.7188V7.99414L22.543 8.30664L18.998 13.9316Z" fill="#FF5C00"/>
</svg>
