<svg width="71" height="52" viewBox="0 0 71 52" fill="none" xmlns="http://www.w3.org/2000/svg">
<path d="M39.8905 12.5718C40.8681 11.4948 41.412 10.0933 41.417 8.63817V6.26925C41.417 2.9985 38.7679 0.346924 35.5003 0.346924C32.2326 0.346924 29.5835 2.9985 29.5835 6.26925V8.63817C29.5885 10.0933 30.1324 11.4948 31.11 12.5718C28.779 13.4184 27.224 15.6318 27.2168 18.1139V22.8517H29.5835V18.1139C29.5835 16.1514 31.1729 14.5605 33.1336 14.5605H34.3169V22.8517H36.6836V14.5605H37.867C39.8276 14.5605 41.417 16.1514 41.417 18.1139V22.8517H43.7837V18.1139C43.7765 15.6318 42.2215 13.4184 39.8905 12.5718ZM39.0503 8.63817C39.0503 10.6007 37.4609 12.1916 35.5003 12.1916C33.5396 12.1916 31.9502 10.6007 31.9502 8.63817V6.26925C31.9502 4.30674 33.5396 2.71585 35.5003 2.71585C37.4609 2.71585 39.0503 4.30674 39.0503 6.26925V8.63817Z" fill="#FF5C00"/>
<path d="M31.7514 49.4369L29.5835 46.1855V37.0651C29.5797 33.796 26.9328 31.1467 23.6668 31.1428H21.3V33.5118H23.6668C25.6274 33.5118 27.2168 35.1026 27.2168 37.0651V46.5409C27.2172 46.7748 27.2863 47.0034 27.4156 47.1982L28.5564 48.9098H24.8501V37.0651H22.4834V50.0942C22.4834 50.7484 23.0132 51.2787 23.6668 51.2787H30.7669C31.4204 51.2789 31.9504 50.7485 31.9504 50.0944C31.9504 49.8605 31.8811 49.6316 31.7514 49.4369Z" fill="#033A48"/>
<path d="M20.1167 8.63817V6.26924C20.1167 2.99849 17.4676 0.346924 14.1999 0.346924C10.9322 0.346924 8.28316 2.99849 8.28316 6.26924V8.63817C8.28302 10.2227 8.91966 11.7406 10.0499 12.8501C7.88955 13.8498 6.3722 15.8652 6.00758 18.2193C4.97422 17.39 3.69087 16.9353 2.36641 16.9294H1.18306C0.52955 16.9296 -0.000147888 17.4601 3.09724e-08 18.1142C3.09724e-08 18.1632 0.00310633 18.212 0.009171 18.2608L2.07057 34.7698C2.29762 36.5542 3.69413 37.9633 5.47507 38.2048L1.24459 50.9046L3.48822 51.6532L7.95182 38.2498H17.75V51.2789H20.1167V37.0653C20.1128 33.7962 17.466 31.1468 14.1999 31.143H9.46651C8.81301 31.143 8.28316 30.6126 8.28316 29.9585V19.2983C8.28316 16.6817 10.4024 14.5605 13.0166 14.5605V27.5896H15.3833V15.2191C16.8428 16.0588 17.7446 17.6133 17.75 19.2983V29.9585H20.1167V19.2983C20.1149 17.0813 19.0772 14.9927 17.3121 13.6532C19.0508 12.5798 20.1116 10.683 20.1167 8.63817ZM9.46651 33.5119H14.1999C15.6989 33.5181 17.0326 34.4662 17.5322 35.8808H6.00876C5.20113 35.8795 4.52011 35.2781 4.41834 34.4761L2.52379 19.2983C4.42278 19.3827 5.91838 20.9492 5.91646 22.8517V29.9585C5.91646 31.921 7.50585 33.5119 9.46651 33.5119ZM17.75 8.63817C17.75 10.6007 16.1606 12.1916 14.1999 12.1916C12.2393 12.1916 10.6499 10.6007 10.6499 8.63817V6.26924C10.6499 4.30674 12.2393 2.71585 14.1999 2.71585C16.1606 2.71585 17.75 4.30674 17.75 6.26924V8.63817Z" fill="#033A48"/>
<path d="M22.4834 25.2207V27.5896H34.3169V51.2789H36.6836V27.5896H48.5171V25.2207H22.4834Z" fill="#FF5C00"/>
<path d="M43.7836 46.5409V37.0651C43.7836 35.1026 45.373 33.5118 47.3336 33.5118H49.7003V31.1428H47.3336C44.0676 31.1467 41.4207 33.796 41.4169 37.0651V46.1855L39.249 49.4404C38.8882 49.9859 39.0376 50.7208 39.5825 51.0819C39.7756 51.2099 40.002 51.2783 40.2335 51.2787H47.3336C47.9871 51.2787 48.517 50.7484 48.517 50.0942V37.0651H46.1503V48.9098H42.444L43.5848 47.1982C43.7141 47.0034 43.7831 46.7748 43.7836 46.5409Z" fill="#033A48"/>
<path d="M68.9299 34.7651L70.9913 18.256C71.0697 17.6066 70.6073 17.0165 69.9585 16.938C69.9118 16.9324 69.8646 16.9294 69.8174 16.9294H68.6341C67.3096 16.9353 66.0263 17.39 64.9929 18.2193C64.6283 15.8652 63.1109 13.8498 60.9506 12.8501C62.0808 11.7406 62.7175 10.2227 62.7173 8.63817V6.26924C62.7173 2.99849 60.0682 0.346924 56.8005 0.346924C53.5329 0.346924 50.8838 2.99849 50.8838 6.26924V8.63817C50.8888 10.683 51.9495 12.5798 53.6883 13.6532C51.9232 14.9927 50.8856 17.0813 50.8838 19.2983V29.9585H53.2505V19.2983C53.2558 17.6133 54.1577 16.0588 55.6172 15.2191V27.5896H57.9839V14.5605C60.5981 14.5605 62.7173 16.6817 62.7173 19.2983V29.9585C62.7173 30.6126 62.1875 31.143 61.534 31.143H56.8005C53.5345 31.1468 50.8876 33.7962 50.8838 37.0653V51.2789H53.2505V38.2498H63.0486L67.5122 51.6532L69.7606 50.9046L65.5254 38.2C67.3062 37.9587 68.7028 36.5495 68.9299 34.7651ZM60.3506 8.63817C60.3506 10.6007 58.7612 12.1916 56.8005 12.1916C54.8399 12.1916 53.2505 10.6007 53.2505 8.63817V6.26924C53.2505 4.30674 54.8399 2.71585 56.8005 2.71585C58.7612 2.71585 60.3506 4.30674 60.3506 6.26924V8.63817ZM64.9917 35.8808H53.4682C53.9679 34.4662 55.3015 33.5181 56.8005 33.5119H61.534C63.4946 33.5119 65.084 31.921 65.084 29.9585V22.8517C65.0821 20.9492 66.5777 19.3827 68.4767 19.2983L66.5833 34.4725C66.483 35.2763 65.801 35.88 64.9917 35.8808Z" fill="#033A48"/>
</svg>
