<svg width="61" height="61" viewBox="0 0 61 61" fill="none" xmlns="http://www.w3.org/2000/svg">
<path d="M48.1465 43.2447C49.2279 43.2447 50.1072 44.1241 50.1072 45.2054H52.068C52.068 43.3839 50.8141 41.8614 49.1269 41.4232V39.3232H47.1662V41.284H44.2251V45.2054C44.2251 47.3681 45.9839 49.1268 48.1465 49.1268C49.2279 49.1268 50.1072 50.0062 50.1072 51.0875V53.0482H48.1465C47.0652 53.0482 46.1858 52.1689 46.1858 51.0875H44.2251C44.2251 52.909 45.479 54.4315 47.1662 54.8698V56.9697H49.1269V55.009H52.068V51.0875C52.068 48.9249 50.3092 47.1661 48.1465 47.1661C47.0652 47.1661 46.1858 46.2867 46.1858 45.2054V43.2447H48.1465Z" fill="#FF5C00"/>
<path d="M48.5738 35.4233L40.3035 27.153L22.6571 44.7994L15.7946 37.9369L2.0696 51.6619V45.6112L15.7946 31.8862L19.716 35.8076L36.8311 18.6925C38.9536 22.7885 43.224 25.5982 48.1464 25.5982C55.1736 25.5982 60.891 19.8807 60.891 12.8535C60.891 5.82633 55.1736 0.108887 48.1464 0.108887C41.1192 0.108887 35.4017 5.82633 35.4017 12.8535C35.4017 14.2084 35.6184 15.5132 36.0125 16.7397L19.716 33.0352L15.7946 29.1137L2.0696 42.8387V23.6375H7.95174V21.6767H2.0696V19.716H9.91246V17.7553H2.0696V15.7946H7.95174V13.8339H2.0696V11.8732H9.91246V9.91246H2.0696V7.95174H7.95174V5.99103H2.0696V4.03032H9.91246V2.0696H2.0696V0.108887H0.108887V60.891H48.1464C55.1736 60.891 60.891 55.1736 60.891 48.1464C60.891 41.2633 55.402 35.6517 48.5738 35.4233ZM48.1464 2.0696C54.0923 2.0696 58.9303 6.90766 58.9303 12.8535C58.9303 18.7994 54.0923 23.6375 48.1464 23.6375C42.2005 23.6375 37.3625 18.7994 37.3625 12.8535C37.3625 6.90766 42.2005 2.0696 48.1464 2.0696ZM29.5196 40.7094V58.9303H25.5982V44.6308L29.5196 40.7094ZM23.6375 46.5915V58.9303H19.716V44.6308L22.6571 47.5719L23.6375 46.5915ZM17.7553 42.6701V58.9303H13.8339V42.6701L15.7946 40.7094L17.7553 42.6701ZM11.8732 58.9303H7.95174V48.5523L11.8732 44.6308V58.9303ZM2.0696 54.4344L5.99103 50.513V58.9303H2.0696V54.4344ZM31.4803 58.9303V38.7487L40.3035 29.9255L45.9788 35.6008C39.982 36.634 35.4017 41.8594 35.4017 48.1464C35.4017 52.6894 37.7977 56.6735 41.3858 58.9303H31.4803ZM48.1464 58.9303C42.2005 58.9303 37.3625 54.0923 37.3625 48.1464C37.3625 42.2005 42.2005 37.3625 48.1464 37.3625C54.0923 37.3625 58.9303 42.2005 58.9303 48.1464C58.9303 54.0923 54.0923 58.9303 48.1464 58.9303Z" fill="#033A48"/>
<path d="M48.1465 17.7553C47.0652 17.7553 46.1858 16.8759 46.1858 15.7946H44.2251C44.2251 17.6161 45.479 19.1386 47.1662 19.5768V21.6767H49.1269V19.716H52.068V15.7946C52.068 13.6319 50.3092 11.8731 48.1465 11.8731C47.0652 11.8731 46.1858 10.9938 46.1858 9.91242V7.9517H48.1465C49.2279 7.9517 50.1072 8.83108 50.1072 9.91242H52.068C52.068 8.09091 50.8141 6.56842 49.1269 6.1302V4.03027H47.1662V5.99099H44.2251V9.91242C44.2251 12.0751 45.9839 13.8338 48.1465 13.8338C49.2279 13.8338 50.1072 14.7132 50.1072 15.7946V17.7553H48.1465Z" fill="#FF5C00"/>
<path d="M17.6992 11.9492L18.4707 4.78125H26.1074V6.83203H20.4434L20.0527 10.2305C20.7103 9.85286 21.4525 9.66406 22.2793 9.66406C23.6335 9.66406 24.6849 10.097 25.4336 10.9629C26.1888 11.8288 26.5664 12.9941 26.5664 14.459C26.5664 15.9043 26.1497 17.0566 25.3164 17.916C24.4831 18.7689 23.3405 19.1953 21.8887 19.1953C20.5866 19.1953 19.5059 18.8275 18.6465 18.0918C17.7936 17.3496 17.3314 16.373 17.2598 15.1621H19.5547C19.6458 15.8522 19.8932 16.3828 20.2969 16.7539C20.7005 17.1185 21.2279 17.3008 21.8789 17.3008C22.6081 17.3008 23.1745 17.0404 23.5781 16.5195C23.9883 15.9987 24.1934 15.2891 24.1934 14.3906C24.1934 13.5247 23.9688 12.8411 23.5195 12.3398C23.0703 11.832 22.4518 11.5781 21.6641 11.5781C21.2344 11.5781 20.8698 11.6367 20.5703 11.7539C20.2708 11.8646 19.9453 12.0859 19.5938 12.418L17.6992 11.9492Z" fill="#FF5C00"/>
</svg>
