<svg width="66" height="66" viewBox="0 0 66 66" fill="none" xmlns="http://www.w3.org/2000/svg">
<path d="M62.8066 11.7097C61.4206 11.7097 60.2496 12.6028 59.8089 13.8387H55.355V15.9678H59.8089C60.2496 17.2037 61.4206 18.0968 62.8066 18.0968C64.5673 18.0968 66.0001 16.664 66.0001 14.9033C66.0001 13.1426 64.5673 11.7097 62.8066 11.7097ZM62.8066 15.9678C62.22 15.9678 61.7421 15.4898 61.7421 14.9033C61.7421 14.3167 62.22 13.8387 62.8066 13.8387C63.3931 13.8387 63.8711 14.3167 63.8711 14.9033C63.8711 15.4898 63.3931 15.9678 62.8066 15.9678Z" fill="#FF5C00"/>
<path d="M56.4193 18.0968C55.0334 18.0968 53.8624 18.9899 53.4217 20.2258H50.473L48.3439 18.0968H40.2238L40.3473 19.272C40.4165 19.9373 40.4516 20.6154 40.4516 21.2903V22.2143C40.4516 28.067 37.8308 33.5205 33.2608 37.1772L29.8064 39.9406V48.9677H17.0323V44.6469C21.8151 44.1146 25.5484 40.0514 25.5484 35.129V34.0645H23.4194V35.129C23.4194 39.2381 20.0768 42.5806 15.9677 42.5806H9.21126C7.54848 42.5806 6.18164 41.332 6.03155 39.6766L5.25552 31.1456L2.12903 30.1035V21.2903C2.12903 10.725 10.725 2.12903 21.2903 2.12903C27.9691 2.12903 34.0624 5.52271 37.587 11.2062L37.8989 11.7097H48.3439L50.473 9.58065H53.4217C53.8624 10.8165 55.0334 11.7097 56.4193 11.7097C58.1801 11.7097 59.6129 10.2768 59.6129 8.51613C59.6129 6.75542 58.1801 5.32258 56.4193 5.32258C55.0334 5.32258 53.8624 6.21571 53.4217 7.45161H49.5915L47.4625 9.58065H39.0741C35.1152 3.57039 28.512 0 21.2903 0C9.55084 0 0 9.55084 0 21.2903V31.6385L3.26061 32.7254L3.90997 39.8693C4.16119 42.6286 6.43926 44.7097 9.21126 44.7097H14.9032V48.9677H12.7742C11.0135 48.9677 9.58064 50.4006 9.58064 52.1613C9.58064 52.9544 9.8819 53.6708 10.3609 54.2296C6.62342 56.2671 4.25806 60.1856 4.25806 64.5033V66H42.5806V64.9355C42.5806 60.3975 39.9811 56.4641 36.1978 54.5203C36.844 53.9358 37.2581 53.0991 37.2581 52.1613C37.2581 50.4006 35.8252 48.9677 34.0645 48.9677H31.9355V40.9626L34.5904 38.8389C39.6681 34.7767 42.5806 28.7185 42.5806 22.2143V21.2903C42.5806 20.9358 42.5721 20.5803 42.554 20.2258H47.4625L49.5915 22.3548H53.4217C53.8624 23.5907 55.0334 24.4839 56.4193 24.4839C58.1801 24.4839 59.6129 23.051 59.6129 21.2903C59.6129 19.5296 58.1801 18.0968 56.4193 18.0968ZM56.4193 7.45161C57.0059 7.45161 57.4839 7.92958 57.4839 8.51613C57.4839 9.10268 57.0059 9.58065 56.4193 9.58065C55.8328 9.58065 55.3548 9.10268 55.3548 8.51613C55.3548 7.92958 55.8328 7.45161 56.4193 7.45161ZM6.40839 63.871C6.64364 60.2899 8.8621 57.1262 12.1951 55.6966L12.9924 55.3548H24.1656C21.4191 57.2827 19.5275 60.3496 19.2092 63.871H6.40839ZM25.6559 63.871C26.1509 61.4449 28.3002 59.6129 30.871 59.6129C33.4418 59.6129 35.591 61.4449 36.086 63.871H25.6559ZM40.3931 63.871H38.2374C37.7179 60.2655 34.617 57.4839 30.871 57.4839C27.1249 57.4839 24.024 60.2655 23.5045 63.871H21.3489C21.8801 59.087 25.9476 55.3548 30.871 55.3548C35.7944 55.3548 39.8619 59.087 40.3931 63.871ZM35.129 52.1613C35.129 52.7478 34.6511 53.2258 34.0645 53.2258H12.7742C12.1876 53.2258 11.7097 52.7478 11.7097 52.1613C11.7097 51.5747 12.1876 51.0968 12.7742 51.0968H34.0645C34.6511 51.0968 35.129 51.5747 35.129 52.1613ZM56.4193 22.3548C55.8328 22.3548 55.3548 21.8769 55.3548 21.2903C55.3548 20.7038 55.8328 20.2258 56.4193 20.2258C57.0059 20.2258 57.4839 20.7038 57.4839 21.2903C57.4839 21.8769 57.0059 22.3548 56.4193 22.3548Z" fill="#033A48"/>
<path d="M43.645 31.9355H58.5482V34.0646H43.645V31.9355Z" fill="#FF5C00"/>
<path d="M40.4517 13.8386H55.3549V15.9677H40.4517V13.8386Z" fill="#FF5C00"/>
<path d="M43.645 36.1936H58.5482V38.3226H43.645V36.1936Z" fill="#FF5C00"/>
<path d="M43.645 40.4517H58.5482V42.5807H43.645V40.4517Z" fill="#FF5C00"/>
<path d="M43.645 44.7097H45.774V46.8387H43.645V44.7097Z" fill="#FF5C00"/>
<path d="M47.9031 44.7097H50.0321V46.8387H47.9031V44.7097Z" fill="#FF5C00"/>
<path d="M56.4194 44.7097H58.5485V46.8387H56.4194V44.7097Z" fill="#FF5C00"/>
<path d="M52.1614 44.7097H54.2904V46.8387H52.1614V44.7097Z" fill="#FF5C00"/>
<path d="M10.3083 13.8389C11.297 13.8389 12.1023 14.641 12.1023 15.6281C12.1023 15.8074 12.0494 15.9697 12.0002 16.134C14.2933 17.9798 18.3447 21.2337 20.1916 22.655C20.4827 22.4493 20.8211 22.302 21.2049 22.302C21.5243 22.302 21.8079 22.4077 22.0669 22.5531C23.2541 21.5452 25.2731 19.8314 26.7061 18.614C26.6872 18.5103 26.6457 18.4178 26.6457 18.3083C26.6457 17.3193 27.451 16.5171 28.4416 16.5171C29.4322 16.5171 30.2375 17.3193 30.2375 18.3083C30.2375 18.4838 30.1846 18.6443 30.1373 18.8047L34.7765 22.9872C35.0261 22.857 35.2945 22.7645 35.597 22.7645C36.5876 22.7645 37.3911 23.5667 37.3911 24.5557C37.3911 25.5447 36.5876 26.3469 35.597 26.3469C34.6064 26.3469 33.8049 25.5447 33.8049 24.5539C33.8049 24.318 33.8559 24.0934 33.9391 23.8877C32.6422 22.7194 30.6421 20.915 29.3944 19.7901C29.1165 19.9694 28.8027 20.1015 28.4435 20.1015C28.02 20.1015 27.6495 19.9335 27.3433 19.6901C26.158 20.6961 24.241 22.323 22.878 23.48C22.9499 23.6725 23.0009 23.8745 23.0009 24.0934C23.0009 25.0824 22.1974 25.8846 21.2068 25.8846C20.2162 25.8846 19.4127 25.0824 19.4127 24.0934C19.4127 23.8745 19.4657 23.6706 19.5375 23.4781L11.3027 17.0817C11.0153 17.2779 10.6845 17.4214 10.3102 17.4214C9.3196 17.4214 8.51612 16.6192 8.51612 15.6302C8.51419 14.641 9.31767 13.8389 10.3083 13.8389Z" fill="#033A48"/>
<path d="M14.1672 25.5483C15.1559 25.5483 15.9612 24.7462 15.9612 23.7591C15.9612 23.5798 15.9083 23.4175 15.8591 23.2532C18.1522 21.4074 22.2036 18.1535 24.0505 16.7322C24.3416 16.9379 24.68 17.0852 25.0638 17.0852C25.3832 17.0852 25.6668 16.9795 25.9258 16.8342C27.113 17.8421 29.132 19.5558 30.565 20.7732C30.5461 20.877 30.5046 20.9694 30.5046 21.0789C30.5046 22.0679 31.3099 22.8701 32.3005 22.8701C33.2911 22.8701 34.0964 22.0679 34.0964 21.0789C34.0964 20.9034 34.0435 20.7429 33.9962 20.5825L38.6354 16.4C38.8849 16.5302 39.1534 16.6227 39.4559 16.6227C40.4465 16.6227 41.25 15.8205 41.25 14.8315C41.25 13.8425 40.4465 13.0403 39.4559 13.0403C38.4653 13.0403 37.6638 13.8425 37.6638 14.8333C37.6638 15.0692 37.7148 15.2938 37.7979 15.4995C36.5011 16.6678 34.501 18.4722 33.2533 19.5971C32.9754 19.4178 32.6615 19.2857 32.3024 19.2857C31.8789 19.2857 31.5084 19.4537 31.2022 19.6971C30.0168 18.6911 28.0999 17.0642 26.7369 15.9072C26.8088 15.7147 26.8598 15.5127 26.8598 15.2938C26.8598 14.3048 26.0563 13.5026 25.0657 13.5026C24.0751 13.5026 23.2716 14.3048 23.2716 15.2938C23.2716 15.5127 23.3246 15.7166 23.3964 15.9091L15.1616 22.3055C14.8742 22.1093 14.5434 21.9658 14.1691 21.9658C13.1785 21.9658 12.375 22.768 12.375 23.757C12.3731 24.7462 13.1766 25.5483 14.1672 25.5483Z" fill="#FF5C00"/>
</svg>
