<svg width="61" height="62" viewBox="0 0 61 62" fill="none" xmlns="http://www.w3.org/2000/svg">
<g clip-path="url(#clip0)">
<path d="M11.8065 17.6262H12.7903C19.7945 17.6262 21.6452 11.8211 21.6452 8.75146V7.76538H20.6613C16.163 7.76538 13.4131 9.31649 11.8065 11.262V9.73755C11.8065 4.8446 7.83358 0.862793 2.95161 0.862793H0V2.83496C0 7.72791 3.97287 11.7097 8.85484 11.7097H9.83871V16.6401V17.6262V18.0601C8.55869 16.7486 6.45616 15.654 2.95161 15.654H1.96774V16.6401C1.96774 19.3203 3.4524 24.3878 9.07326 24.3878H9.83871V28.4731H3.93548V37.3479C3.93548 41.1532 7.02484 44.2505 10.8226 44.2505C13.5351 44.2505 15.7419 46.4623 15.7419 49.1809V56.0835H10.8226C8.11005 56.0835 5.90323 53.8717 5.90323 51.1531V44.2505H3.93548V51.1531C3.93548 54.6231 6.50634 57.4956 9.83871 57.9768V62H11.8065V58.0557H17.7097V49.1809C17.7097 45.3756 14.6203 42.2783 10.8226 42.2783C8.11005 42.2783 5.90323 40.0665 5.90323 37.3479V30.4453H10.8226C13.5351 30.4453 15.7419 32.6571 15.7419 35.3757V42.2783H17.7097V35.3757C17.7097 31.9057 15.1388 29.0332 11.8065 28.552V17.6262ZM19.582 9.77305C19.2799 11.7018 18.0216 15.654 12.7903 15.654H11.8812C12.2954 12.9216 14.4855 10.1192 19.582 9.77305ZM8.85484 9.73755C5.0571 9.73755 1.96774 6.64124 1.96774 2.83496H2.95161C6.74936 2.83496 9.83871 5.93126 9.83871 9.73755H8.85484ZM9.07326 22.4156C5.307 22.4156 4.30148 19.3321 4.03289 17.6686C9.28479 18.0936 9.78853 21.613 9.83379 22.4156H9.07326Z" fill="#033A48"/>
<path d="M39.3549 36.3618V42.2783H19.6775V62H61.0001V36.3618H39.3549ZM41.3227 38.334H59.0323V42.2783H57.0646V40.3061H55.0968V42.2783H53.1291V40.3061H51.1614V42.2783H49.1936V40.3061H47.2259V42.2783H45.2581V40.3061H43.2904V42.2783H41.3227V38.334ZM59.0323 44.2505V48.1948H57.0646V46.2227H55.0968V48.1948H53.1291V46.2227H51.1614V48.1948H49.1936V46.2227H47.2259V48.1948H45.2581V46.2227H43.2904V48.1948H41.3227V44.2505H59.0323ZM55.0968 52.1392V54.1113H53.1291V52.1392H51.1614V54.1113H49.1936V52.1392H47.2259V54.1113H45.2581V52.1392H43.2904V54.1113H41.3227V50.167H59.0323V54.1113H57.0646V52.1392H55.0968ZM35.4194 52.1392V54.1113H33.4517V52.1392H31.4839V54.1113H29.5162V52.1392H27.5485V54.1113H25.5807V52.1392H23.613V54.1113H21.6452V50.167H39.3549V54.1113H37.3872V52.1392H35.4194ZM39.3549 44.2505V48.1948H37.3872V46.2227H35.4194V48.1948H33.4517V46.2227H31.4839V48.1948H29.5162V46.2227H27.5485V48.1948H25.5807V46.2227H23.613V48.1948H21.6452V44.2505H39.3549ZM37.3872 60.0278V58.0557H35.4194V60.0278H33.4517V58.0557H31.4839V60.0278H29.5162V58.0557H27.5485V60.0278H25.5807V58.0557H23.613V60.0278H21.6452V56.0835H39.3549V60.0278H37.3872ZM57.0646 60.0278V58.0557H55.0968V60.0278H53.1291V58.0557H51.1614V60.0278H49.1936V58.0557H47.2259V60.0278H45.2581V58.0557H43.2904V60.0278H41.3227V56.0835H59.0323V60.0278H57.0646Z" fill="#033A48"/>
<path d="M45.258 34.3897H47.2257V12.6959H44.1452L50.1774 3.62686L56.2095 12.6959H53.129V34.3897H55.0967V14.668H59.8872L50.1774 0.0710449L40.4675 14.668H45.258V34.3897Z" fill="#FF5C00"/>
<path d="M25.5808 24.5289V40.3062H27.5485V22.5567H24.468L30.5001 13.4877L36.5322 22.5567H33.4517V40.3062H35.4195V24.5289H40.2099L30.5001 9.93188L20.7903 24.5289H25.5808Z" fill="#FF5C00"/>
</g>
<defs>
<clipPath id="clip0">
<rect width="61" height="62" fill="white"/>
</clipPath>
</defs>
</svg>
