<svg width="65" height="65" viewBox="0 0 65 65" fill="none" xmlns="http://www.w3.org/2000/svg">
<path d="M36.6496 16.9379H42.8744V30.425C42.8744 30.7001 42.9837 30.964 43.1783 31.1586C43.3728 31.3531 43.6367 31.4624 43.9119 31.4624H54.2865C54.5617 31.4624 54.8256 31.3531 55.0201 31.1586C55.2147 30.964 55.324 30.7001 55.324 30.425V16.9379H61.5488C61.7472 16.9379 61.9415 16.881 62.1086 16.774C62.2756 16.6669 62.4085 16.5142 62.4914 16.3339C62.5743 16.1537 62.6038 15.9534 62.5763 15.7569C62.5489 15.5604 62.4656 15.3758 62.3365 15.2252L49.8869 0.700663C49.7895 0.587036 49.6687 0.495826 49.5327 0.433292C49.3967 0.370757 49.2488 0.338379 49.0992 0.338379C48.9495 0.338379 48.8017 0.370757 48.6657 0.433292C48.5297 0.495826 48.4089 0.587036 48.3115 0.700663L35.8619 15.2252C35.7327 15.3758 35.6495 15.5604 35.622 15.7569C35.5946 15.9534 35.6241 16.1537 35.707 16.3339C35.7899 16.5142 35.9227 16.6669 36.0898 16.774C36.2569 16.881 36.4512 16.9379 36.6496 16.9379ZM49.0992 2.97012L59.2931 14.863H54.2865C54.0114 14.863 53.7475 14.9723 53.5529 15.1669C53.3584 15.3614 53.2491 15.6253 53.2491 15.9005V29.3875H44.9493V15.9005C44.9493 15.6253 44.84 15.3614 44.6455 15.1669C44.4509 14.9723 44.187 14.863 43.9119 14.863H38.9053L49.0992 2.97012Z" fill="#033A48"/>
<path d="M28.3501 48.0619H22.1253V34.5748C22.1253 34.2997 22.016 34.0358 21.8214 33.8412C21.6268 33.6467 21.3629 33.5374 21.0878 33.5374H10.7131C10.438 33.5374 10.1741 33.6467 9.97953 33.8412C9.78497 34.0358 9.67566 34.2997 9.67566 34.5748V48.0619H3.45086C3.25244 48.0619 3.05817 48.1188 2.89109 48.2258C2.72402 48.3329 2.59115 48.4856 2.50824 48.6659C2.42533 48.8461 2.39585 49.0464 2.42331 49.2429C2.45077 49.4394 2.53402 49.624 2.66317 49.7746L15.1128 64.2991C15.2102 64.4128 15.331 64.504 15.467 64.5665C15.6029 64.629 15.7508 64.6614 15.9005 64.6614C16.0501 64.6614 16.198 64.629 16.334 64.5665C16.4699 64.504 16.5908 64.4128 16.6882 64.2991L29.1378 49.7746C29.2669 49.624 29.3501 49.4394 29.3776 49.2429C29.4051 49.0464 29.3756 48.8461 29.2927 48.6659C29.2098 48.4856 29.0769 48.3329 28.9098 48.2258C28.7428 48.1188 28.5485 48.0619 28.3501 48.0619ZM15.9005 62.0297L5.70658 50.1368H10.7131C10.9883 50.1368 11.2522 50.0275 11.4467 49.8329C11.6413 49.6384 11.7506 49.3745 11.7506 49.0993V35.6123H20.0503V49.0993C20.0503 49.3745 20.1596 49.6384 20.3542 49.8329C20.5488 50.0275 20.8126 50.1368 21.0878 50.1368H26.0943L15.9005 62.0297Z" fill="#033A48"/>
<path d="M49.0994 33.5374C46.0215 33.5374 43.0127 34.45 40.4536 36.16C37.8944 37.87 35.8998 40.3005 34.7219 43.144C33.5441 45.9876 33.2359 49.1166 33.8364 52.1353C34.4368 55.1541 35.919 57.927 38.0954 60.1033C40.2717 62.2797 43.0446 63.7619 46.0634 64.3623C49.0821 64.9628 52.2111 64.6546 55.0547 63.4768C57.8983 62.2989 60.3287 60.3043 62.0387 57.7451C63.7487 55.186 64.6614 52.1772 64.6614 49.0993C64.6567 44.9735 63.0156 41.0179 60.0982 38.1005C57.1808 35.1831 53.2252 33.542 49.0994 33.5374ZM49.0994 62.5864C46.4319 62.5864 43.8243 61.7954 41.6063 60.3134C39.3884 58.8315 37.6597 56.7251 36.6389 54.2606C35.6181 51.7962 35.351 49.0844 35.8714 46.4682C36.3918 43.8519 37.6764 41.4488 39.5626 39.5626C41.4488 37.6764 43.8519 36.3918 46.4682 35.8714C49.0844 35.351 51.7962 35.6181 54.2606 36.6389C56.7251 37.6597 58.8315 39.3884 60.3134 41.6063C61.7954 43.8243 62.5864 46.4319 62.5864 49.0993C62.5824 52.6751 61.1601 56.1032 58.6317 58.6317C56.1032 61.1601 52.6751 62.5824 49.0994 62.5864Z" fill="#033A48"/>
<path d="M53.6382 41.027L49.0993 44.6581L44.5604 41.027C44.3455 40.855 44.0711 40.7754 43.7976 40.8058C43.5241 40.8361 43.2738 40.9738 43.1018 41.1887C42.9298 41.4036 42.8503 41.6779 42.8806 41.9515C42.9109 42.225 43.0487 42.4753 43.2635 42.6473L48.0618 46.4859V48.0619H45.9869C45.7117 48.0619 45.4478 48.1712 45.2533 48.3658C45.0587 48.5603 44.9494 48.8242 44.9494 49.0994C44.9494 49.3745 45.0587 49.6384 45.2533 49.833C45.4478 50.0275 45.7117 50.1368 45.9869 50.1368H48.0618V52.2118H45.9869C45.7117 52.2118 45.4478 52.3211 45.2533 52.5156C45.0587 52.7102 44.9494 52.9741 44.9494 53.2492C44.9494 53.5244 45.0587 53.7883 45.2533 53.9828C45.4478 54.1774 45.7117 54.2867 45.9869 54.2867H48.0618V56.3616C48.0618 56.6368 48.1711 56.9007 48.3657 57.0952C48.5602 57.2898 48.8241 57.3991 49.0993 57.3991C49.3744 57.3991 49.6383 57.2898 49.8329 57.0952C50.0274 56.9007 50.1367 56.6368 50.1367 56.3616V54.2867H52.2117C52.4868 54.2867 52.7507 54.1774 52.9453 53.9828C53.1398 53.7883 53.2491 53.5244 53.2491 53.2492C53.2491 52.9741 53.1398 52.7102 52.9453 52.5156C52.7507 52.3211 52.4868 52.2118 52.2117 52.2118H50.1367V50.1368H52.2117C52.4868 50.1368 52.7507 50.0275 52.9453 49.833C53.1398 49.6384 53.2491 49.3745 53.2491 49.0994C53.2491 48.8242 53.1398 48.5603 52.9453 48.3658C52.7507 48.1712 52.4868 48.0619 52.2117 48.0619H50.1367V46.4857L54.935 42.6471C55.1499 42.4751 55.2876 42.2249 55.3179 41.9513C55.3483 41.6778 55.2687 41.4034 55.0967 41.1886C54.9248 40.9737 54.6745 40.836 54.4009 40.8056C54.1274 40.7753 53.853 40.8549 53.6382 41.0269V41.027Z" fill="#FF5C00"/>
<path d="M15.9004 0.338867C12.8225 0.338867 9.81376 1.25156 7.2546 2.96154C4.69544 4.67151 2.70082 7.10196 1.52297 9.94555C0.345122 12.7891 0.0369422 15.9181 0.637405 18.9369C1.23787 21.9556 2.72 24.7285 4.89639 26.9049C7.07277 29.0812 9.84566 30.5634 12.8644 31.1638C15.8831 31.7643 19.0121 31.4561 21.8557 30.2783C24.6993 29.1004 27.1297 27.1058 28.8397 24.5466C30.5497 21.9875 31.4624 18.9787 31.4624 15.9009C31.4577 11.775 29.8167 7.81946 26.8992 4.90203C23.9818 1.9846 20.0262 0.343535 15.9004 0.338867ZM15.9004 29.3879C13.2329 29.3879 10.6253 28.5969 8.40737 27.115C6.18944 25.633 4.46076 23.5266 3.43996 21.0621C2.41916 18.5977 2.15207 15.8859 2.67247 13.2697C3.19287 10.6534 4.47739 8.25027 6.36359 6.36407C8.24979 4.47787 10.653 3.19335 13.2692 2.67295C15.8854 2.15255 18.5972 2.41964 21.0617 3.44044C23.5261 4.46125 25.6325 6.18992 27.1145 8.40785C28.5964 10.6258 29.3874 13.2334 29.3874 15.9009C29.3834 19.4766 27.9611 22.9047 25.4327 25.4332C22.9043 27.9616 19.4761 29.3839 15.9004 29.3879Z" fill="#033A48"/>
<path d="M15.9004 8.63817C17.4267 8.63817 18.8738 9.58926 19.8707 11.2477C19.9409 11.3644 20.0334 11.4662 20.1429 11.5472C20.2525 11.6283 20.3769 11.6869 20.5091 11.7198C20.6413 11.7528 20.7787 11.7593 20.9135 11.7392C21.0482 11.719 21.1776 11.6725 21.2944 11.6023C21.4112 11.5321 21.513 11.4396 21.594 11.33C21.675 11.2205 21.7337 11.0961 21.7666 10.9639C21.7995 10.8316 21.8061 10.6942 21.7859 10.5595C21.7657 10.4248 21.7192 10.2953 21.649 10.1785C20.2678 7.88094 18.1726 6.56323 15.9004 6.56323C13.9033 6.56323 12.0452 7.57385 10.6689 9.40913C9.92071 10.4234 9.37074 11.5698 9.04783 12.788H7.6007C7.32555 12.788 7.06166 12.8973 6.8671 13.0919C6.67254 13.2865 6.56323 13.5503 6.56323 13.8255C6.56323 14.1007 6.67254 14.3645 6.8671 14.5591C7.06166 14.7537 7.32555 14.863 7.6007 14.863H8.68381C8.65463 15.2053 8.63817 15.5513 8.63817 15.9004C8.63817 16.2495 8.65463 16.5955 8.68381 16.9379H7.6007C7.32555 16.9379 7.06166 17.0472 6.8671 17.2418C6.67254 17.4363 6.56323 17.7002 6.56323 17.9754C6.56323 18.2505 6.67254 18.5144 6.8671 18.709C7.06166 18.9035 7.32555 19.0128 7.6007 19.0128H9.04783C9.37074 20.2311 9.92071 21.3775 10.6689 22.3917C12.0452 24.227 13.9033 25.2376 15.9004 25.2376C18.1726 25.2376 20.2678 23.9199 21.649 21.6223C21.7908 21.3865 21.8331 21.104 21.7666 20.837C21.7001 20.57 21.5302 20.3404 21.2944 20.1986C21.0586 20.0568 20.7761 20.0145 20.5091 20.081C20.2421 20.1475 20.0125 20.3174 19.8707 20.5532C18.8738 22.2116 17.4267 23.1627 15.9004 23.1627C13.8354 23.1627 12.0488 21.4638 11.2146 19.0128H13.8255C14.1007 19.0128 14.3645 18.9035 14.5591 18.709C14.7537 18.5144 14.863 18.2505 14.863 17.9754C14.863 17.7002 14.7537 17.4363 14.5591 17.2418C14.3645 17.0472 14.1007 16.9379 13.8255 16.9379H10.7669C10.6952 16.2481 10.6952 15.5527 10.7669 14.863H13.8255C14.1007 14.863 14.3645 14.7537 14.5591 14.5591C14.7537 14.3645 14.863 14.1007 14.863 13.8255C14.863 13.5503 14.7537 13.2865 14.5591 13.0919C14.3645 12.8973 14.1007 12.788 13.8255 12.788H11.2146C12.0488 10.337 13.8354 8.63817 15.9004 8.63817Z" fill="#FF5C00"/>
</svg>
