<svg width="61" height="63" viewBox="0 0 61 63" fill="none" xmlns="http://www.w3.org/2000/svg">
<g clip-path="url(#clip0)">
<path d="M32.5332 31.7977C32.5332 28.3703 35.1847 25.5038 38.4451 25.4053C40.0952 25.3483 41.6863 25.9651 42.8798 27.1225C44.0754 28.2829 44.7332 29.8366 44.7332 31.5H46.7665C46.7665 28.1376 49.5024 25.4032 52.8665 25.4032C56.2307 25.4032 58.9665 28.1376 58.9665 31.5H60.9999C60.9999 16.2875 50.1246 3.30546 35.141 0.631006L31.6945 0.0162482C31.5775 -0.00509054 31.4545 -0.00509054 31.3366 0.0162482L27.8901 0.631006C12.9085 3.30546 2.0332 16.2875 2.0332 31.5H4.06654C4.06654 28.1376 6.80239 25.4032 10.1665 25.4032C13.5307 25.4032 16.2665 28.1376 16.2665 31.5H18.2999C18.2999 28.1376 21.0357 25.4032 24.3999 25.4032C27.764 25.4032 30.4999 28.1376 30.4999 31.5H30.5141C30.5111 31.5996 30.4999 31.6981 30.4999 31.7977V58.9355C30.4999 60.0563 29.5879 60.9677 28.4665 60.9677C27.3452 60.9677 26.4332 60.0563 26.4332 58.9355V56.9032H24.3999V58.9355C24.3999 61.1771 26.2238 63 28.4665 63C30.7093 63 32.5332 61.1771 32.5332 58.9355V54.871H34.5665V52.8387H32.5332V31.7977ZM58.3464 25.5109C56.8997 24.1869 54.9792 23.371 52.8665 23.371C50.33 23.371 48.0618 24.5395 46.5693 26.3645C45.6411 17.3382 41.4484 8.84641 34.7465 2.62668L34.7445 2.62465L34.7841 2.63176C46.7787 4.77275 55.9521 13.9799 58.3464 25.5109ZM10.1665 23.371C8.0539 23.371 6.13342 24.1869 4.6867 25.5109C7.08095 13.9799 16.2543 4.77275 28.249 2.63176L28.2886 2.62465L28.2866 2.62668C21.5847 8.84641 17.392 17.3382 16.4638 26.3645C14.9713 24.5395 12.7031 23.371 10.1665 23.371ZM24.3999 23.371C22.1195 23.371 20.0577 24.317 18.5795 25.833C19.6053 17.5709 23.5133 9.82901 29.6703 4.11531L31.5165 2.40314L33.3618 4.11633C39.5187 9.83002 43.4278 17.5719 44.4526 25.8341C44.3987 25.7792 44.3509 25.7203 44.296 25.6664C42.705 24.1219 40.5984 23.3181 38.3841 23.376C36.0621 23.4451 33.9779 24.5619 32.5332 26.27V5.08064H30.4999V26.1409C29.0084 24.447 26.8297 23.371 24.3999 23.371Z" fill="#FF5C00"/>
<path d="M52.5686 32.8138C52.3785 32.6228 52.1203 32.5161 51.8499 32.5161H37.6165C37.0543 32.5161 36.5999 32.9713 36.5999 33.5322V61.9838C36.5999 62.5448 37.0543 63 37.6165 63H59.9832C60.5454 63 60.9999 62.5448 60.9999 61.9838V41.6613C60.9999 41.392 60.8931 41.1329 60.702 40.9429L52.5686 32.8138ZM52.8665 35.9852L57.5289 40.6451H52.8665V35.9852ZM38.6332 60.9677V34.5484H50.8332V41.6613C50.8332 42.2222 51.2876 42.6774 51.8499 42.6774H58.9665V60.9677H38.6332Z" fill="#033A48"/>
<path d="M44.7335 35.5645H40.6668C40.1046 35.5645 39.6501 36.0197 39.6501 36.5806V40.6451C39.6501 41.206 40.1046 41.6612 40.6668 41.6612H44.7335C45.2957 41.6612 45.7502 41.206 45.7502 40.6451V36.5806C45.7502 36.0197 45.2957 35.5645 44.7335 35.5645ZM43.7168 39.629H41.6835V37.5967H43.7168V39.629Z" fill="#033A48"/>
<path d="M44.7335 42.6772H40.6668C40.1046 42.6772 39.6501 43.1325 39.6501 43.6934V47.7579C39.6501 48.3188 40.1046 48.774 40.6668 48.774H44.7335C45.2957 48.774 45.7502 48.3188 45.7502 47.7579V43.6934C45.7502 43.1325 45.2957 42.6772 44.7335 42.6772ZM43.7168 46.7418H41.6835V44.7095H43.7168V46.7418Z" fill="#033A48"/>
<path d="M44.7335 49.7903H40.6668C40.1046 49.7903 39.6501 50.2455 39.6501 50.8064V54.8709C39.6501 55.4318 40.1046 55.8871 40.6668 55.8871H44.7335C45.2957 55.8871 45.7502 55.4318 45.7502 54.8709V50.8064C45.7502 50.2455 45.2957 49.7903 44.7335 49.7903ZM43.7168 53.8548H41.6835V51.8225H43.7168V53.8548Z" fill="#033A48"/>
<path d="M54.9001 56.4826V55.8871C54.9001 55.3262 54.4456 54.871 53.8834 54.871H51.8501C51.5797 54.871 51.3214 54.9777 51.1313 55.1687L48.0813 58.2171L49.5189 59.6539L52.271 56.9032H52.8668V58.9355C52.8668 59.346 53.1138 59.7169 53.494 59.8744C53.6201 59.9262 53.7523 59.9516 53.8834 59.9516C54.1478 59.9516 54.408 59.848 54.6022 59.6539L58.6689 55.5894L57.2313 54.1526L54.9001 56.4826Z" fill="#033A48"/>
<path d="M46.7666 51.8225H48.7999V53.8548H46.7666V51.8225Z" fill="#033A48"/>
<path d="M49.8167 51.8225H57.95V53.8548H49.8167V51.8225Z" fill="#033A48"/>
<path d="M46.7666 44.7095H48.7999V46.7417H46.7666V44.7095Z" fill="#033A48"/>
<path d="M46.7666 37.5967H48.7999V39.6289H46.7666V37.5967Z" fill="#033A48"/>
<path d="M49.8167 44.7095H57.95V46.7417H49.8167V44.7095Z" fill="#033A48"/>
<path d="M11.1833 40.6453C5.01725 40.6453 0 45.6599 0 51.8227C0 57.9855 5.01725 63.0001 11.1833 63.0001C17.3494 63.0001 22.3667 57.9855 22.3667 51.8227C22.3667 45.6599 17.3494 40.6453 11.1833 40.6453ZM2.03333 51.8227C2.03333 47.1241 5.59878 43.2445 10.1667 42.7375V44.8541C8.41698 45.3083 7.11667 46.8863 7.11667 48.7743C7.11667 51.0159 8.94057 52.8388 11.1833 52.8388C12.3047 52.8388 13.2167 53.7503 13.2167 54.8711C13.2167 55.9919 12.3047 56.9033 11.1833 56.9033C10.0619 56.9033 9.15 55.9919 9.15 54.8711H7.11667C7.11667 56.759 8.41698 58.3371 10.1667 58.7913V60.9079C5.59878 60.4008 2.03333 56.5213 2.03333 51.8227ZM12.2 60.9079V58.7913C13.9497 58.3371 15.25 56.759 15.25 54.8711C15.25 52.6295 13.4261 50.8066 11.1833 50.8066C10.0619 50.8066 9.15 49.8951 9.15 48.7743C9.15 47.6535 10.0619 46.742 11.1833 46.742C12.3047 46.742 13.2167 47.6535 13.2167 48.7743H15.25C15.25 46.8863 13.9497 45.3083 12.2 44.8541V42.7375C16.7679 43.2455 20.3333 47.1241 20.3333 51.8227C20.3333 56.5213 16.7679 60.4008 12.2 60.9079Z" fill="#033A48"/>
<path d="M4.06665 50.8064H6.09998V52.8387H4.06665V50.8064Z" fill="#033A48"/>
<path d="M16.2666 50.8064H18.2999V52.8387H16.2666V50.8064Z" fill="#033A48"/>
</g>
<defs>
<clipPath id="clip0">
<rect width="61" height="63" fill="white"/>
</clipPath>
</defs>
</svg>
