<svg width="23" height="31" viewBox="0 0 23 31" fill="none" xmlns="http://www.w3.org/2000/svg">
<g clip-path="url(#clip0)">
<path d="M17.4443 1.81164C15.59 0.570569 13.4076 -0.0601485 11.1914 0.0045189C5.37439 0.217915 0.74209 5.04955 0.656905 10.9923C0.638166 13.1847 1.26025 15.3331 2.44356 17.1627C4.05171 19.5478 4.93836 22.3628 4.99344 25.258V25.465C4.99344 26.0764 5.47882 26.572 6.07759 26.572H16.9189C17.5177 26.572 18.003 26.0764 18.003 25.465V25.2602C18.0653 22.3556 18.9568 19.5328 20.5681 17.1383C23.8504 12.0252 22.4518 5.16319 17.4443 1.81164ZM18.7553 15.9228C17.0905 18.4306 16.0933 21.3376 15.8618 24.358H12.5823V13.7465L15.517 10.7499C15.933 10.3102 15.921 9.60941 15.4904 9.18469C15.0702 8.77036 14.4042 8.77036 13.9841 9.18469L11.4981 11.723L9.01223 9.18469C8.58154 8.75998 7.89524 8.77211 7.47929 9.21187C7.07351 9.64087 7.07351 10.321 7.47929 10.7499L10.414 13.7465V24.358H7.13449C6.91082 21.3446 5.91726 18.4438 4.25289 15.9449C3.30627 14.4815 2.80913 12.7627 2.82508 11.0089C2.86008 6.11815 6.77133 2.18232 11.5612 2.218C13.798 2.23467 15.942 3.13314 17.5454 4.72569C20.5213 7.68145 21.0285 12.3758 18.7553 15.9228Z" fill="#033A48"/>
<path d="M14.7505 28.7861H8.24577C7.647 28.7861 7.16162 29.2817 7.16162 29.8931C7.16162 30.5045 7.647 31.0001 8.24577 31.0001H14.7505C15.3493 31.0001 15.8347 30.5045 15.8347 29.8931C15.8347 29.2817 15.3492 28.7861 14.7505 28.7861Z" fill="#033A48"/>
</g>
<defs>
<clipPath id="clip0">
<rect width="23" height="31" fill="white"/>
</clipPath>
</defs>
</svg>
