<svg width="31" height="31" viewBox="0 0 31 31" fill="none" xmlns="http://www.w3.org/2000/svg">
<path d="M28.2754 0.96875H2.72461C1.22229 0.96875 0 2.19104 0 3.69336V21.8574C0 23.3597 1.22229 24.582 2.72461 24.582H10.6071L9.39612 28.2148H6.41797C5.91633 28.2148 5.50977 28.6214 5.50977 29.123C5.50977 29.6247 5.91633 30.0312 6.41797 30.0312H24.582C25.0837 30.0312 25.4902 29.6247 25.4902 29.123C25.4902 28.6214 25.0837 28.2148 24.582 28.2148H21.6039L20.3929 24.582H28.2754C29.7777 24.582 31 23.3597 31 21.8574V3.69336C31 2.19104 29.7777 0.96875 28.2754 0.96875ZM11.3109 28.2148L12.5219 24.582H18.4781L19.6891 28.2148H11.3109ZM29.1836 21.8574C29.1836 22.3581 28.7761 22.7656 28.2754 22.7656C25.6366 22.7656 5.3908 22.7656 2.72461 22.7656C2.22392 22.7656 1.81641 22.3581 1.81641 21.8574V20.9492H29.1836V21.8574ZM9.90414 13.913L9.07801 13.0871L10.3623 11.8026L11.1884 12.6288C11.4812 12.9216 11.9351 12.9793 12.292 12.7688C12.8024 12.4679 13.3473 12.2411 13.9114 12.0949C14.312 11.9914 14.5918 11.6297 14.5918 11.2158V10.0508H16.4082V11.2158C16.4082 11.6297 16.688 11.9914 17.0886 12.0949C17.6525 12.2411 18.1974 12.4679 18.7078 12.769C19.0647 12.9793 19.5186 12.9216 19.8114 12.6288L20.6375 11.8026L21.922 13.0871L21.0959 13.9132C20.8031 14.206 20.7453 14.6599 20.9558 15.0166C21.2569 15.5272 21.4835 16.0721 21.6297 16.636C21.7333 17.0366 22.0949 17.3164 22.5088 17.3164H23.6738V19.1328H19.9492C20.0098 18.8353 20.041 18.5309 20.041 18.2246C20.041 15.7207 18.0039 13.6836 15.5 13.6836C12.9961 13.6836 10.959 15.7207 10.959 18.2246C10.959 18.5309 10.9902 18.8353 11.0508 19.1328H7.32617V17.3164H8.49123C8.90512 17.3164 9.26675 17.0366 9.37057 16.636C9.5165 16.0721 9.74332 15.5272 10.0442 15.0166C10.2544 14.6599 10.1969 14.206 9.90414 13.913ZM18.2246 18.2246C18.2246 18.5356 18.1707 18.8428 18.0685 19.1328H12.9315C12.8293 18.8428 12.7754 18.5356 12.7754 18.2246C12.7754 16.7223 13.9977 15.5 15.5 15.5C17.0023 15.5 18.2246 16.7223 18.2246 18.2246ZM29.1836 19.1328H25.4902V16.4082C25.4902 15.9066 25.0837 15.5 24.582 15.5H23.179C23.0849 15.2361 22.9768 14.9766 22.8553 14.7224L23.8486 13.7292C24.2031 13.3745 24.2031 12.7995 23.8484 12.4447L21.2796 9.876C21.1093 9.70571 20.8783 9.61016 20.6375 9.61016C20.3967 9.61016 20.1657 9.70571 19.9954 9.876L19.0023 10.8693C18.748 10.7478 18.4886 10.6397 18.2246 10.5458V9.14258C18.2246 8.64094 17.818 8.23438 17.3164 8.23438H13.6836C13.182 8.23438 12.7754 8.64094 12.7754 9.14258V10.5458C12.5114 10.6397 12.252 10.7478 11.9977 10.8693L11.0046 9.876C10.8343 9.70571 10.6033 9.61016 10.3625 9.61016C10.1215 9.61016 9.89066 9.70571 9.72014 9.876L7.15163 12.4447C6.79686 12.7995 6.79686 13.3745 7.15163 13.7292L8.14474 14.7226C8.02317 14.9766 7.91532 15.2361 7.82119 15.5H6.41797C5.91633 15.5 5.50977 15.9068 5.50977 16.4082V19.1328H1.81641V3.69336C1.81641 3.19267 2.22392 2.78516 2.72461 2.78516H28.2754C28.7761 2.78516 29.1836 3.19267 29.1836 3.69336V19.1328Z" fill="#033A48"/>
<path d="M24.582 4.60156C23.0797 4.60156 21.8574 5.82385 21.8574 7.32617C21.8574 8.82849 23.0797 10.0508 24.582 10.0508C26.0844 10.0508 27.3066 8.82849 27.3066 7.32617C27.3066 5.82385 26.0844 4.60156 24.582 4.60156ZM24.582 8.23438C24.0813 8.23438 23.6738 7.82687 23.6738 7.32617C23.6738 6.82548 24.0813 6.41797 24.582 6.41797C25.0827 6.41797 25.4902 6.82548 25.4902 7.32617C25.4902 7.82687 25.0827 8.23438 24.582 8.23438Z" fill="#033A48"/>
</svg>
