<svg width="31" height="31" viewBox="0 0 31 31" fill="none" xmlns="http://www.w3.org/2000/svg">
<g clip-path="url(#clip0)">
<path d="M12.3999 11.3665C11.2798 11.3665 10.3332 10.6577 10.3332 9.81654C10.3332 8.97542 11.2798 8.26657 12.3999 8.26657C12.962 8.26657 13.4869 8.44016 13.8775 8.75842C14.3198 9.11802 14.9687 9.05395 15.3304 8.60963C15.692 8.16737 15.6259 7.51638 15.1816 7.15678C14.6835 6.74966 14.08 6.47686 13.4332 6.33013V5.16662C13.4332 4.59623 12.9703 4.1333 12.3999 4.1333C11.8295 4.1333 11.3665 4.59623 11.3665 5.16662V6.32806C9.58925 6.73312 8.2666 8.13637 8.2666 9.81654C8.2666 11.8108 10.1204 13.4331 12.3999 13.4331C13.52 13.4331 14.4665 14.142 14.4665 14.9831C14.4665 15.8242 13.52 16.5331 12.3999 16.5331C11.8377 16.5331 11.3128 16.3595 10.9222 16.0412C10.482 15.6816 9.83104 15.7457 9.46938 16.19C9.10772 16.6323 9.17385 17.2833 9.61818 17.6449C10.1162 18.05 10.7197 18.3228 11.3665 18.4695V19.633C11.3665 20.2034 11.8295 20.6664 12.3999 20.6664C12.9703 20.6664 13.4332 20.2034 13.4332 19.633V18.4716C15.2105 18.0665 16.5331 16.6633 16.5331 14.9831C16.5331 12.9888 14.6794 11.3665 12.3999 11.3665Z" fill="#033A48"/>
<path d="M30.6978 29.2371L21.8608 20.4002C23.6898 18.2385 24.7996 15.4486 24.7996 12.4003C24.7996 5.5618 19.2383 0.000488281 12.3998 0.000488281C5.56131 0.000488281 0 5.5618 0 12.4003C0 19.2388 5.56131 24.8001 12.3998 24.8001C15.4481 24.8001 18.236 23.6903 20.3977 21.8613L29.2346 30.6982C29.4371 30.8987 29.7016 31 29.9662 31C30.2307 31 30.4952 30.8987 30.6978 30.6982C31.1007 30.2953 31.1007 29.6401 30.6978 29.2371ZM12.3998 22.7334C6.70209 22.7334 2.06663 18.098 2.06663 12.4003C2.06663 6.70258 6.70209 2.06712 12.3998 2.06712C18.0975 2.06712 22.733 6.70258 22.733 12.4003C22.733 18.098 18.0975 22.7334 12.3998 22.7334Z" fill="#033A48"/>
</g>
<defs>
<clipPath id="clip0">
<rect width="31" height="31" fill="white"/>
</clipPath>
</defs>
</svg>
