<svg width="27" height="31" viewBox="0 0 27 31" fill="none" xmlns="http://www.w3.org/2000/svg">
<path d="M22.4607 20.0404H17.9803V19.1321C17.9803 17.9971 17.2918 17.0223 16.316 16.6133C16.6553 14.5497 17.1997 12.6168 18.9522 9.5012C19.4887 8.54728 19.7724 7.45974 19.7724 6.35609C19.7724 2.83971 16.9557 -0.026337 13.4401 0.000182568C10.3195 0.0237353 7.86763 2.33166 7.34448 5.11282C7.02078 6.83356 7.37465 8.55976 8.34115 9.9734C9.66666 11.9124 10.3053 14.3104 10.6839 16.6133C9.70817 17.0223 9.01961 17.9971 9.01961 19.1321V20.0404H4.53929C2.06885 20.0404 0.05896 22.0776 0.05896 24.5817V26.4587C0.05896 26.9603 0.460137 27.367 0.955037 27.367H1.85111V28.2753C1.85111 29.7777 3.05703 31 4.53929 31H22.4606C23.9428 31 25.1488 29.7777 25.1488 28.2753V27.367H26.0449C26.5397 27.367 26.941 26.9604 26.941 26.4587V24.5817C26.941 22.0776 24.9311 20.0404 22.4607 20.0404ZM9.81426 8.9389C9.12391 7.92904 8.87201 6.6911 9.10492 5.45309C9.46989 3.51305 11.2267 1.78819 13.5597 1.81429C16.016 1.84178 17.9803 3.8813 17.9803 6.35609C17.9803 7.14477 17.778 7.92117 17.3953 8.60147C15.5237 11.9288 14.9232 14.0343 14.5329 16.4074H12.4668C12.0353 13.7815 11.3264 11.1509 9.81426 8.9389ZM16.1882 19.1321V20.0404H10.8118V19.1321C10.8118 18.6314 11.2137 18.2239 11.7078 18.2239H15.2921C15.7862 18.2239 16.1882 18.6314 16.1882 19.1321ZM23.3567 28.2753C23.3567 28.7761 22.9548 29.1835 22.4607 29.1835H4.53935C4.04528 29.1835 3.64327 28.7761 3.64327 28.2753V27.367H23.3567V28.2753ZM25.1489 25.5505C24.1156 25.5505 3.74679 25.5505 1.85117 25.5505V24.5817C1.85117 23.0793 3.05709 21.8569 4.53935 21.8569C4.9778 21.8569 20.3942 21.8569 22.4607 21.8569C23.9429 21.8569 25.1489 23.0793 25.1489 24.5817V25.5505Z" fill="#033A48"/>
</svg>
