<svg width="25" height="31" viewBox="0 0 25 31" fill="none" xmlns="http://www.w3.org/2000/svg">
<path d="M22.7407 5.38994C20.3855 1.96481 16.6528 0 12.5005 0C8.3482 0 4.61552 1.96481 2.26029 5.38994C-0.0833671 8.79776 -0.624526 13.1122 0.809808 16.9239C1.19346 17.9648 1.80331 18.9761 2.61809 19.9238L11.6793 30.6184C11.8842 30.8605 12.1845 31 12.5005 31C12.8165 31 13.1168 30.8606 13.3217 30.6184L22.3804 19.9267C23.1988 18.9736 23.8078 17.9634 24.1883 16.9308C25.6255 13.1122 25.0844 8.79776 22.7407 5.38994ZM22.1683 16.1716C21.8749 16.9683 21.3959 17.756 20.7454 18.5136C20.7436 18.5154 20.7418 18.5172 20.7404 18.5194L12.5005 28.2443L4.25555 18.5133C3.60545 17.7563 3.12647 16.9687 2.83019 16.1644C1.64399 13.0121 2.09416 9.44489 4.03477 6.62274C5.98146 3.79157 9.06729 2.16782 12.5005 2.16782C15.9336 2.16782 19.0191 3.79151 20.9659 6.62274C22.9068 9.44489 23.3574 13.0121 22.1683 16.1716Z" fill="#033A48"/>
<path d="M12.5005 6.43115C9.16979 6.43115 6.45972 9.15394 6.45972 12.5011C6.45972 15.8482 9.16943 18.571 12.5005 18.571C15.8316 18.571 18.5413 15.8482 18.5413 12.5011C18.5413 9.15431 15.8312 6.43115 12.5005 6.43115ZM12.5005 16.4032C10.3592 16.4032 8.61712 14.6526 8.61712 12.501C8.61712 10.3494 10.3592 8.59891 12.5005 8.59891C14.6418 8.59891 16.3839 10.3494 16.3839 12.501C16.3839 14.6526 14.6418 16.4032 12.5005 16.4032Z" fill="#033A48"/>
</svg>
