<svg width="33" height="24" viewBox="0 0 33 24" fill="none" xmlns="http://www.w3.org/2000/svg">
<g clip-path="url(#clip0)">
<path d="M29.8065 0.00537109H3.19355C1.43257 0.00537109 0 1.40922 0 3.13474V20.8679C0 22.5934 1.43257 23.9972 3.19355 23.9972H29.8065C31.5674 23.9972 33 22.5934 33 20.8679V3.13474C33 1.40922 31.5674 0.00537109 29.8065 0.00537109ZM30.871 20.8679C30.871 21.443 30.3934 21.911 29.8065 21.911H3.19355C2.6066 21.911 2.12903 21.443 2.12903 20.8679V3.13474C2.12903 2.55959 2.6066 2.09162 3.19355 2.09162H29.8065C30.3934 2.09162 30.871 2.55959 30.871 3.13474V20.8679ZM6.91936 10.9582H9.04839C10.5158 10.9582 11.7097 9.78831 11.7097 8.35036V6.26411C11.7097 4.82617 10.5158 3.6563 9.04839 3.6563H6.91936C5.45192 3.6563 4.25806 4.82617 4.25806 6.26411V8.35036C4.25806 9.78831 5.45192 10.9582 6.91936 10.9582ZM6.3871 6.26411C6.3871 5.97654 6.62588 5.74255 6.91936 5.74255H9.04839C9.34186 5.74255 9.58065 5.97654 9.58065 6.26411V8.35036C9.58065 8.63794 9.34186 8.87192 9.04839 8.87192H6.91936C6.62588 8.87192 6.3871 8.63794 6.3871 8.35036V6.26411ZM4.25806 14.0875C4.25806 13.5115 4.73464 13.0444 5.32258 13.0444H6.91936C7.5073 13.0444 7.98387 13.5115 7.98387 14.0875C7.98387 14.6636 7.5073 15.1307 6.91936 15.1307H5.32258C4.73464 15.1307 4.25806 14.6636 4.25806 14.0875ZM27.1452 14.0875C27.1452 14.6636 26.6686 15.1307 26.0806 15.1307H24.4839C23.8959 15.1307 23.4194 14.6636 23.4194 14.0875C23.4194 13.5115 23.8959 13.0444 24.4839 13.0444H26.0806C26.6686 13.0444 27.1452 13.5115 27.1452 14.0875ZM14.9032 14.0875C14.9032 14.6636 14.4267 15.1307 13.8387 15.1307H10.6452C10.0572 15.1307 9.58065 14.6636 9.58065 14.0875C9.58065 13.5115 10.0572 13.0444 10.6452 13.0444H13.8387C14.4267 13.0444 14.9032 13.5115 14.9032 14.0875ZM21.8226 14.0875C21.8226 14.6636 21.346 15.1307 20.7581 15.1307H17.5645C16.9766 15.1307 16.5 14.6636 16.5 14.0875C16.5 13.5115 16.9766 13.0444 17.5645 13.0444H20.7581C21.346 13.0444 21.8226 13.5115 21.8226 14.0875ZM13.506 18.26C13.506 18.8361 13.0295 19.3032 12.4415 19.3032H5.32258C4.73464 19.3032 4.25806 18.8361 4.25806 18.26C4.25806 17.684 4.73464 17.2169 5.32258 17.2169H12.4415C13.0295 17.2169 13.506 17.684 13.506 18.26Z" fill="#033A48"/>
</g>
<defs>
<clipPath id="clip0">
<rect width="33" height="24" fill="white"/>
</clipPath>
</defs>
</svg>
