<svg width="36" height="31" viewBox="0 0 36 31" fill="none" xmlns="http://www.w3.org/2000/svg">
<path d="M28.0347 0.174805H7.96527L0 10.8338L18 30.8254L36 10.8338L28.0347 0.174805ZM27.9766 3.61017L32.5496 9.72956H26.4044L27.9766 3.61017ZM26.1439 2.26101L24.5763 8.36297L20.076 2.26101H26.1439ZM22.9708 9.72963H13.0292L18 2.98972L22.9708 9.72963ZM15.924 2.26101L11.4236 8.36297L9.85597 2.26101H15.924ZM8.02341 3.61017L9.5956 9.72956H3.45044L8.02341 3.61017ZM3.71088 11.8158H10.2223L15.0045 24.359L3.71088 11.8158ZM17.9999 26.2956L12.4793 11.8158H23.5205L17.9999 26.2956ZM20.9955 24.359L25.7777 11.8158H32.2892L20.9955 24.359Z" fill="#033A48"/>
</svg>
