<svg width="36" height="36" viewBox="0 0 36 36" fill="none" xmlns="http://www.w3.org/2000/svg">
<path d="M29.6893 18.8213H23.5684V25.1233H29.6893V18.8213ZM27.58 23.014H25.6777V20.9307H27.58V23.014Z" fill="#033A48"/>
<path d="M15.5891 25.1235H21.7101V14.9385H15.5891V25.1235ZM17.6985 17.0479H19.6007V23.0142H17.6985V17.0479Z" fill="#033A48"/>
<path d="M7.64684 12.6551V25.1228H13.7678V12.6091H15.8895L10.7523 6.33154L5.50562 12.6551H7.64684ZM9.75622 10.8355L10.741 9.64854L11.6585 10.7696V23.0135H9.75622V10.8355Z" fill="#033A48"/>
<path d="M36 4.73414V2.62477H19.0547V0H16.9453V2.62477H0V4.73414H1.67871V27.5713H0V29.6807H11.7052L8.49748 34.7315L10.2781 35.8623L14.204 29.6807H16.9453V36H19.0547V29.6807H21.796L25.7219 35.8623L27.5025 34.7315L24.2948 29.6807H36V27.5713H34.3213V4.73414H36ZM32.2119 27.5713H3.78809V4.73414H32.2118V27.5713H32.2119Z" fill="#033A48"/>
<path d="M24.0874 6.9458H29.9069V9.05518H24.0874V6.9458Z" fill="#033A48"/>
<path d="M24.0874 11.1646H29.9069V13.2739H24.0874V11.1646Z" fill="#033A48"/>
</svg>
