<svg width="36" height="36" viewBox="0 0 36 36" fill="none" xmlns="http://www.w3.org/2000/svg">
<path d="M34.9453 25.3828H33.8906V2.10938H34.9453C35.5279 2.10938 36 1.63724 36 1.05469C36 0.472137 35.5279 0 34.9453 0H1.05469C0.472137 0 0 0.472137 0 1.05469C0 1.63724 0.472137 2.10938 1.05469 2.10938H2.10938V25.3828H1.05469C0.472137 25.3828 0 25.8549 0 26.4375C0 27.0201 0.472137 27.4922 1.05469 27.4922H16.9453V29.8531C15.7176 30.2888 14.8359 31.461 14.8359 32.8359C14.8359 34.5806 16.2554 36 18 36C19.7446 36 21.1641 34.5806 21.1641 32.8359C21.1641 31.461 20.2824 30.2888 19.0547 29.8531V27.4922H34.9453C35.5279 27.4922 36 27.0201 36 26.4375C36 25.8549 35.5279 25.3828 34.9453 25.3828ZM18 33.8906C17.4185 33.8906 16.9453 33.4174 16.9453 32.8359C16.9453 32.2545 17.4185 31.7812 18 31.7812C18.5815 31.7812 19.0547 32.2545 19.0547 32.8359C19.0547 33.4174 18.5815 33.8906 18 33.8906ZM31.7812 2.10938V4.28906H4.21875V2.10938H31.7812ZM4.21875 6.39844H31.7812V25.3828H4.21875V6.39844Z" fill="#033A48"/>
<path d="M20.1094 21.1641C20.6919 21.1641 21.1641 20.692 21.1641 20.1094C21.1641 19.5269 20.6919 19.0548 20.1094 19.0548H11.5332L13.9452 15.4367L15.1449 16.6364C15.3682 16.86 15.6802 16.9715 15.9944 16.9402C16.3089 16.9091 16.5929 16.7386 16.7682 16.4757L20.9869 10.1476C21.3102 9.66283 21.1792 9.00804 20.6944 8.68504C20.2099 8.36204 19.5548 8.49278 19.2318 8.97755L15.7267 14.2353L14.5269 13.0356C14.3036 12.8121 13.9916 12.7003 13.6774 12.7319C13.3629 12.7629 13.0789 12.9335 12.9037 13.1963L10.6172 16.626V9.56258C10.6172 8.98003 10.145 8.50789 9.5625 8.50789C8.97995 8.50789 8.50781 8.98003 8.50781 9.56258V19.0548H7.45312C6.87057 19.0548 6.39844 19.5269 6.39844 20.1094C6.39844 20.692 6.87057 21.1641 7.45312 21.1641H8.50781V22.2188C8.50781 22.8014 8.97995 23.2735 9.5625 23.2735C10.145 23.2735 10.6172 22.8014 10.6172 22.2188V21.1641H20.1094Z" fill="#033A48"/>
<path d="M24.3281 12.7266H28.5469C29.1294 12.7266 29.6016 12.2544 29.6016 11.6719C29.6016 11.0893 29.1294 10.6172 28.5469 10.6172H24.3281C23.7456 10.6172 23.2734 11.0893 23.2734 11.6719C23.2734 12.2544 23.7456 12.7266 24.3281 12.7266Z" fill="#033A48"/>
<path d="M24.3281 16.9453H28.5469C29.1294 16.9453 29.6016 16.4732 29.6016 15.8906C29.6016 15.3081 29.1294 14.8359 28.5469 14.8359H24.3281C23.7456 14.8359 23.2734 15.3081 23.2734 15.8906C23.2734 16.4732 23.7456 16.9453 24.3281 16.9453Z" fill="#033A48"/>
<path d="M24.3281 21.1641H28.5469C29.1294 21.1641 29.6016 20.6919 29.6016 20.1094C29.6016 19.5268 29.1294 19.0547 28.5469 19.0547H24.3281C23.7456 19.0547 23.2734 19.5268 23.2734 20.1094C23.2734 20.6919 23.7456 21.1641 24.3281 21.1641Z" fill="#033A48"/>
</svg>
