<svg width="31" height="31" viewBox="0 0 31 31" fill="none" xmlns="http://www.w3.org/2000/svg">
<g clip-path="url(#clip0)">
<path d="M29.1836 15.5C29.1836 15.2034 29.1738 14.9036 29.1543 14.6045L30.82 13.0801L30.7238 12.581C30.602 11.9499 30.4397 11.3205 30.2414 10.7104C30.0432 10.1002 29.8045 9.49563 29.532 8.91317L29.3165 8.45289L27.0738 8.19877C26.755 7.6946 26.4022 7.2098 26.02 6.75049L26.4717 4.53732L26.1006 4.19027C25.6313 3.75142 25.13 3.33759 24.6107 2.96032C24.0916 2.58311 23.543 2.23418 22.9804 1.92333L22.5356 1.67757L20.5738 2.78921C20.0182 2.56737 19.4468 2.38185 18.8667 2.23497L17.9326 0.181883L17.4283 0.119338C16.7902 0.0401426 16.1415 0 15.5 0C14.8585 0 14.2097 0.0401426 13.5717 0.119338L13.0673 0.181883L12.1333 2.23497C11.5532 2.38191 10.9819 2.56737 10.4262 2.78921L8.46438 1.67757L8.01954 1.92333C7.45694 2.23418 6.90839 2.58305 6.38932 2.96026C5.86995 3.33759 5.36868 3.75142 4.89938 4.19027L4.52829 4.53732L4.97997 6.75049C4.59761 7.20992 4.24487 7.6946 3.92615 8.19883L1.68343 8.45289L1.46801 8.91317C1.19554 9.49538 0.956869 10.1001 0.758578 10.7103C0.560227 11.3207 0.397961 11.9501 0.276201 12.5812L0.179932 13.0801L1.84564 14.6045C1.8262 14.9036 1.81639 15.2034 1.81639 15.5C1.81639 15.7966 1.8262 16.0963 1.84564 16.3955L0.179992 17.9199L0.276262 18.4188C0.398022 19.0499 0.560227 19.6793 0.758639 20.2897C0.956869 20.8999 1.19561 21.5046 1.46807 22.0868L1.68349 22.5471L3.92621 22.8012C4.24499 23.3054 4.59767 23.7901 4.98003 24.2495L4.52835 26.4627L4.89944 26.8097C5.36874 27.2486 5.87001 27.6624 6.38932 28.0397C6.90845 28.4169 7.457 28.7658 8.0196 29.0767L8.46444 29.3224L10.4263 28.2108C10.982 28.4326 11.5532 28.6181 12.1333 28.765L13.0674 30.818L13.5717 30.8806C14.2096 30.9599 14.8583 31 15.5 31C16.1417 31 16.7904 30.9599 17.4283 30.8806L17.9326 30.818L18.8667 28.765C19.4468 28.6181 20.0182 28.4326 20.5738 28.2108L22.5356 29.3224L22.9804 29.0767C23.543 28.7658 24.0916 28.417 24.6107 28.0397C25.13 27.6624 25.6313 27.2486 26.1006 26.8097L26.4717 26.4627L26.02 24.2495C26.4022 23.7902 26.755 23.3054 27.0738 22.8012L29.3165 22.5471L29.532 22.0868C29.8045 21.5044 30.0432 20.8998 30.2413 20.2897C30.4396 19.6795 30.602 19.05 30.7238 18.419L30.82 17.92L29.1543 16.3955C29.1738 16.0963 29.1836 15.7966 29.1836 15.5ZM27.3092 14.3236C27.3477 14.7148 27.3672 15.1106 27.3672 15.5C27.3672 15.8894 27.3477 16.2852 27.3092 16.6764L27.2648 17.1285L28.836 18.5665C28.7454 18.9587 28.6375 19.3478 28.5138 19.7285C28.3902 20.1091 28.2487 20.4872 28.0915 20.8579L25.9759 21.0976L25.7462 21.4897C25.3505 22.1649 24.8851 22.8045 24.363 23.3905L24.0602 23.7304L24.4866 25.8196C24.1829 26.0835 23.867 26.335 23.543 26.5703C23.2191 26.8056 22.8824 27.0284 22.5375 27.2357L20.6854 26.1863L20.2685 26.3695C19.5508 26.6848 18.7983 26.9291 18.0318 27.0956L17.5866 27.1924L16.7047 29.1309C15.9027 29.201 15.0974 29.201 14.2953 29.1309L13.4134 27.1924L12.9682 27.0956C12.2018 26.9291 11.4492 26.6848 10.7316 26.3695L10.3146 26.1863L8.46256 27.2357C8.11763 27.0284 7.78081 26.8056 7.457 26.5702C7.13307 26.3349 6.81714 26.0835 6.51344 25.8196L6.93981 23.7304L6.63707 23.3905C6.1148 22.8043 5.64943 22.1648 5.25394 21.4897L5.02417 21.0976L2.90854 20.8579C2.7513 20.4873 2.6098 20.1091 2.4861 19.7284C2.3624 19.3477 2.25457 18.9586 2.16399 18.5665L3.73524 17.1285L3.6908 16.6764C3.6523 16.2852 3.6328 15.8894 3.6328 15.5C3.6328 15.1106 3.6523 14.7148 3.69074 14.3236L3.73518 13.8714L2.16393 12.4335C2.25451 12.0414 2.36234 11.6524 2.48604 11.2716C2.60974 10.891 2.75124 10.5128 2.90848 10.1422L5.02411 9.9025L5.25388 9.51034C5.64937 8.8353 6.11474 8.19575 6.63701 7.60953L6.93975 7.26968L6.51338 5.18045C6.81708 4.91659 7.13301 4.66508 7.457 4.42979C7.78087 4.19451 8.11757 3.97169 8.4625 3.76438L10.3146 4.81372L10.7315 4.63056C11.4492 4.31524 12.2018 4.07093 12.9682 3.90443L13.4134 3.80767L14.2953 1.86914C15.0974 1.79915 15.9025 1.79915 16.7046 1.86914L17.5866 3.80767L18.0318 3.90443C18.7982 4.07093 19.5508 4.31524 20.2684 4.63056L20.6853 4.81372L22.5374 3.76438C22.8823 3.97169 23.2192 4.19451 23.543 4.42985C23.8669 4.6652 24.1828 4.91659 24.4865 5.18045L24.0602 7.26968L24.3629 7.60953C24.885 8.19556 25.3504 8.83506 25.7461 9.51034L25.9758 9.9025L28.0914 10.1422C28.2487 10.5128 28.3902 10.891 28.5138 11.2716C28.6375 11.6522 28.7453 12.0414 28.8359 12.4335L27.2647 13.8715L27.3092 14.3236Z" fill="#033A48"/>
<path d="M15.5 5.44922C9.95802 5.44922 5.44922 9.95802 5.44922 15.5C5.44922 21.042 9.95802 25.5508 15.5 25.5508C21.042 25.5508 25.5508 21.042 25.5508 15.5C25.5508 9.95802 21.042 5.44922 15.5 5.44922ZM15.5 23.7344C10.9596 23.7344 7.26562 20.0404 7.26562 15.5C7.26562 10.9596 10.9596 7.26562 15.5 7.26562C20.0404 7.26562 23.7344 10.9596 23.7344 15.5C23.7344 20.0404 20.0404 23.7344 15.5 23.7344Z" fill="#033A48"/>
<path d="M15.5 11.8672C13.4969 11.8672 11.8672 13.4969 11.8672 15.5C11.8672 17.5031 13.4969 19.1328 15.5 19.1328C17.5031 19.1328 19.1328 17.5031 19.1328 15.5C19.1328 13.4969 17.5031 11.8672 15.5 11.8672ZM15.5 17.3164C14.4984 17.3164 13.6836 16.5016 13.6836 15.5C13.6836 14.4984 14.4984 13.6836 15.5 13.6836C16.5016 13.6836 17.3164 14.4984 17.3164 15.5C17.3164 16.5016 16.5016 17.3164 15.5 17.3164Z" fill="#033A48"/>
</g>
<defs>
<clipPath id="clip0">
<rect width="31" height="31" fill="white"/>
</clipPath>
</defs>
</svg>
