<svg width="40" height="32" viewBox="0 0 40 32" fill="none" xmlns="http://www.w3.org/2000/svg">
<path d="M16.8043 9.14286L17.5554 8.87116C19.3594 8.21844 20.5714 6.49051 20.5714 4.57143C20.5714 2.05074 18.5207 0 16 0C14.0808 0 12.3529 1.21211 11.7003 3.01615L10.2857 6.92625L8.87116 3.01615C8.21851 1.21211 6.49059 0 4.57143 0C2.05074 0 0 2.05074 0 4.57143C0 6.49051 1.21204 8.21844 3.01615 8.87116L3.76724 9.14286H0V32H39.0095V9.14286H16.8043ZM13.8497 3.79368C14.176 2.89173 15.0401 2.28571 16 2.28571C17.2603 2.28571 18.2857 3.31109 18.2857 4.57143C18.2857 5.53128 17.6797 6.39543 16.7778 6.72175L12.1899 8.38149L13.8497 3.79368ZM2.28571 4.57143C2.28571 3.31109 3.31109 2.28571 4.57143 2.28571C5.53135 2.28571 6.39543 2.89173 6.72175 3.79375L8.38149 8.38149L3.79375 6.72175C2.89173 6.39543 2.28571 5.53128 2.28571 4.57143ZM36.7238 29.7143H11.4286V27.4286H9.14286V29.7143H2.28571V11.4286H8.15025L4.76343 16.5089L6.66522 17.7768L9.14286 14.0603V18.2857H11.4286V14.0603L13.9063 17.7768L15.8081 16.5089L12.4212 11.4286H36.7238V29.7143Z" fill="#033A48"/>
<path d="M21.7142 20.571C23.6047 20.571 25.1428 19.033 25.1428 17.1424C25.1428 15.2519 23.6047 13.7139 21.7142 13.7139C19.8237 13.7139 18.2856 15.2519 18.2856 17.1424C18.2856 19.033 19.8237 20.571 21.7142 20.571ZM21.7142 15.9996C22.3444 15.9996 22.8571 16.5123 22.8571 17.1424C22.8571 17.7726 22.3444 18.2853 21.7142 18.2853C21.084 18.2853 20.5714 17.7726 20.5714 17.1424C20.5714 16.5123 21.084 15.9996 21.7142 15.9996Z" fill="#033A48"/>
<path d="M27.4287 23.9999C27.4287 25.8904 28.9668 27.4284 30.8573 27.4284C32.7478 27.4284 34.2859 25.8904 34.2859 23.9999C34.2859 22.1093 32.7478 20.5713 30.8573 20.5713C28.9668 20.5713 27.4287 22.1093 27.4287 23.9999ZM32.0001 23.9999C32.0001 24.63 31.4875 25.1427 30.8573 25.1427C30.2271 25.1427 29.7144 24.63 29.7144 23.9999C29.7144 23.3697 30.2271 22.857 30.8573 22.857C31.4875 22.857 32.0001 23.3697 32.0001 23.9999Z" fill="#033A48"/>
<path d="M20.8306 25.5762L29.9779 14.1457L31.763 15.5742L22.6157 27.0047L20.8306 25.5762Z" fill="#033A48"/>
<path d="M9.14307 20.5713H11.4288V25.1427H9.14307V20.5713Z" fill="#033A48"/>
</svg>
