<svg width="36" height="31" viewBox="0 0 36 31" fill="none" xmlns="http://www.w3.org/2000/svg">
<g clip-path="url(#clip0)">
<path d="M19.1613 21.1696C19.1613 26.5274 14.8634 30.8863 9.58064 30.8863C4.29786 30.8863 0 26.5275 0 21.1696C0 15.8118 4.29786 11.453 9.58064 11.453C14.8634 11.453 19.1613 15.8118 19.1613 21.1696ZM16.8387 21.1696C16.8387 17.1106 13.5828 13.8085 9.58064 13.8085C5.57847 13.8085 2.32258 17.1106 2.32258 21.1696C2.32258 25.2286 5.57847 28.5307 9.58064 28.5307C13.5828 28.5307 16.8387 25.2286 16.8387 21.1696ZM34.8387 28.5307H34.0403V9.09741C34.0403 8.44691 33.5204 7.91963 32.879 7.91963C32.2376 7.91963 31.7177 8.44691 31.7177 9.09741V28.5307H25.8387V13.8085C25.8387 13.158 25.3188 12.6307 24.6774 12.6307C24.036 12.6307 23.5161 13.158 23.5161 13.8085V28.5307H18.5806C17.9392 28.5307 17.4194 29.058 17.4194 29.7085C17.4194 30.359 17.9392 30.8863 18.5806 30.8863H34.8387C35.4801 30.8863 36 30.359 36 29.7085C36 29.058 35.4801 28.5307 34.8387 28.5307ZM17.8776 12.8011L22.0282 8.59155L23.8563 10.4455C24.3098 10.9054 25.0451 10.9054 25.4986 10.4455L31.7177 4.13801V4.68074C31.7177 5.33124 32.2376 5.85852 32.879 5.85852C33.5204 5.85852 34.0403 5.33124 34.0403 4.68074C34.0403 0.943065 34.0458 1.26033 34.0275 1.12842C33.9712 0.726574 33.7109 0.369266 33.323 0.206438C33.0358 0.0858634 33.1248 0.116853 29.5403 0.116853C28.8989 0.116853 28.379 0.64413 28.379 1.29463C28.379 1.94513 28.8989 2.47241 29.5403 2.47241H30.0755L24.6774 7.94701L22.8493 6.09305C22.3958 5.63312 21.6605 5.63312 21.207 6.09305L16.2353 11.1354C15.7817 11.5953 15.7817 12.3411 16.2353 12.801C16.6889 13.2611 17.4241 13.261 17.8776 12.8011Z" fill="#033A48"/>
<path d="M12.1944 20.7114C12.5706 20.2851 12.7999 19.7236 12.7999 19.1087C12.7999 18.4668 12.5514 17.8619 12.1 17.4056C11.6485 16.9493 11.0501 16.698 10.4151 16.6981H10.1153V15.5H8.88838V16.6981H6.1875V17.9382H7.18943V24.4714H6.1875V25.7116H8.88838V26.9097H10.1153V25.7117H10.7424C12.2242 25.7117 13.4297 24.4931 13.4297 22.9952C13.4298 22.2719 13.1497 21.5903 12.6409 21.076C12.5035 20.9371 12.3536 20.8156 12.1944 20.7114ZM8.41637 17.9382H10.4152C10.7225 17.9382 11.0127 18.0605 11.2323 18.2825C11.452 18.5046 11.573 18.7979 11.5729 19.1086C11.5729 19.7476 11.0637 20.2683 10.434 20.2786H8.41633V17.9382H8.41637ZM10.7424 24.4715H8.41637V21.5193L10.7424 21.5188C11.1302 21.5188 11.4963 21.6729 11.7733 21.9529C12.0503 22.2329 12.2028 22.603 12.2027 22.9952C12.2027 23.8092 11.5476 24.4715 10.7424 24.4715Z" fill="#033A48"/>
</g>
<defs>
<clipPath id="clip0">
<rect width="36" height="31" fill="white"/>
</clipPath>
</defs>
</svg>
