<svg width="23" height="31" viewBox="0 0 23 31" fill="none" xmlns="http://www.w3.org/2000/svg">
<path d="M10.5109 13.4328C10.5109 13.8304 10.7607 14.1847 11.1326 14.3143L12.5124 14.7952C13.6818 15.2028 14.4675 16.3169 14.4675 17.5673C14.4675 18.8582 13.6377 19.9562 12.4892 20.3467V21.2779C12.4892 21.8301 12.0464 22.2778 11.5 22.2778C10.9538 22.2778 10.5109 21.8301 10.5109 21.2779V20.3468C9.36237 19.9563 8.53252 18.8583 8.53252 17.5674C8.53252 17.0152 8.97542 16.5675 9.52169 16.5675C10.068 16.5675 10.5109 17.0152 10.5109 17.5674C10.5109 18.0815 10.9246 18.4998 11.4333 18.4998H11.5667C12.0754 18.4998 12.4892 18.0815 12.4892 17.5674C12.4892 17.1697 12.2394 16.8155 11.8674 16.6859L10.4877 16.2049C9.31822 15.7974 8.53252 14.6833 8.53252 13.4329C8.53252 12.142 9.36237 11.044 10.5109 10.6534V9.72234C10.5109 9.17013 10.9538 8.72241 11.5 8.72241C12.0464 8.72241 12.4892 9.17013 12.4892 9.72234V10.6535C13.6377 11.044 14.4675 12.142 14.4675 13.4329C14.4675 13.9851 14.0247 14.4328 13.4784 14.4328C12.932 14.4328 12.4892 13.9851 12.4892 13.4329C12.4892 12.9188 12.0754 12.5005 11.5667 12.5005H11.4333C10.9246 12.5003 10.5109 12.9186 10.5109 13.4328ZM22.8755 1.00122V29.9989C22.8755 30.8415 21.9029 31.3067 21.2584 30.7716L18.4242 28.4182L15.59 30.7716C15.225 31.0746 14.6992 31.0746 14.3342 30.7716L11.5 28.4182L8.66574 30.7716C8.30086 31.0746 7.77494 31.0746 7.40999 30.7716L4.57578 28.4182L1.74156 30.7716C1.09854 31.3057 0.124512 30.8432 0.124512 29.9989V1.00122C0.124512 0.159847 1.09612 -0.307366 1.74156 0.228529L4.57578 2.58197L7.40999 0.228529C7.77487 -0.0745098 8.3008 -0.0745098 8.66574 0.228529L11.5 2.58197L14.3342 0.228529C14.6992 -0.0745098 15.2249 -0.0745098 15.59 0.228529L18.4242 2.58197L21.2584 0.228529C21.9015 -0.305554 22.8755 0.156972 22.8755 1.00122ZM20.8971 3.11661L19.0521 4.64868C18.6871 4.95172 18.1613 4.95172 17.7963 4.64868L14.9621 2.2953L12.1279 4.64874C11.763 4.95178 11.2371 4.95178 10.8721 4.64874L8.03793 2.2953L5.20371 4.64874C4.83883 4.95178 4.3129 4.95178 3.94796 4.64874L2.10291 3.11661V27.8836L3.94796 26.3515C4.31284 26.0485 4.83877 26.0485 5.20371 26.3515L8.03793 28.705L10.8721 26.3515C11.237 26.0485 11.7628 26.0485 12.1279 26.3515L14.9621 28.705L17.7963 26.3515C18.1613 26.0485 18.6871 26.0485 19.0521 26.3515L20.8972 27.8836V3.11661H20.8971Z" fill="#033A48"/>
</svg>
