<svg width="20" height="21" viewBox="0 0 20 21" fill="none" xmlns="http://www.w3.org/2000/svg">
<path d="M17.2169 1.44197C16.2089 0.385392 14.5765 0.385392 13.5685 1.44197L12.6552 2.40617L2.93329 12.6087L2.91263 12.6306C2.90762 12.6358 2.90762 12.6414 2.90229 12.6414C2.89196 12.6577 2.87647 12.6738 2.8663 12.6901C2.8663 12.6955 2.86097 12.6955 2.86097 12.7009C2.85064 12.7172 2.84564 12.728 2.83515 12.7443C2.83014 12.7497 2.83014 12.755 2.82498 12.7606C2.81981 12.7769 2.81465 12.7877 2.80932 12.804C2.80932 12.8092 2.80432 12.8092 2.80432 12.8148L0.647323 19.6254C0.584048 19.8193 0.63215 20.0341 0.771128 20.178C0.868785 20.2792 1.0005 20.3358 1.13754 20.3353C1.19355 20.3342 1.24908 20.3251 1.30267 20.3081L7.78398 18.0379C7.78898 18.0379 7.78898 18.0379 7.79431 18.0326C7.81061 18.0275 7.82627 18.0202 7.84063 18.0108C7.84467 18.0102 7.84822 18.0084 7.85113 18.0055C7.86646 17.9947 7.88712 17.9836 7.90262 17.9728C7.91795 17.9621 7.93361 17.9458 7.9491 17.935C7.95427 17.9294 7.95927 17.9294 7.95927 17.9241C7.9646 17.9187 7.97493 17.9135 7.9801 17.9025L18.6153 6.73553C19.6215 5.67709 19.6215 3.96307 18.6153 2.9048L17.2169 1.44197ZM7.61885 16.7645L4.02736 12.9936L13.0164 3.55512L16.6079 7.32601L7.61885 16.7645ZM3.52148 13.996L6.65907 17.2903L1.94768 18.9373L3.52148 13.996ZM17.8878 5.97691L17.3407 6.55672L13.7491 2.78548L14.3014 2.20584C14.9056 1.57196 15.8849 1.57196 16.4893 2.20584L17.8928 3.67952C18.4924 4.31679 18.4902 5.34269 17.8878 5.97691Z" fill="#033A48" stroke="#033A48" stroke-width="0.5"/>
</svg>
