<svg width="22" height="22" viewBox="0 0 22 22" fill="none" xmlns="http://www.w3.org/2000/svg">
<g clip-path="url(#clip0)">
<path d="M20.5589 9.15152H17.1681V2.6587C17.1681 1.66655 16.3609 0.859375 15.3687 0.859375H1.75635C0.764208 0.859375 -0.0429688 1.66655 -0.0429688 2.6587V12.5857C-0.0429688 13.5778 0.764208 14.385 1.75635 14.385H3.07915L4.03924 18.2247C4.0995 18.4665 4.29084 18.6535 4.53388 18.7086C4.58239 18.7195 4.63107 18.7248 4.67957 18.7248C4.87411 18.7247 5.06176 18.6386 5.18865 18.4847L8.57094 14.385H10.3417V16.9811C10.3417 17.752 10.9688 18.3792 11.7399 18.3792H16.1892L18.3108 20.9508C18.4378 21.1047 18.6255 21.1909 18.82 21.1909C18.8684 21.1909 18.9172 21.1855 18.9655 21.1746C19.2086 21.1197 19.3999 20.9325 19.4604 20.6908L20.0382 18.3792H20.5589C21.3298 18.3792 21.9571 17.752 21.9571 16.9811V10.5497C21.9571 9.7786 21.3298 9.15152 20.5589 9.15152ZM8.25975 13.0649C8.0627 13.0649 7.87605 13.1528 7.75067 13.3049L5.00268 16.6357L4.23495 13.5649C4.1616 13.271 3.89758 13.0649 3.59461 13.0649H1.75635C1.49216 13.0649 1.27732 12.8499 1.27732 12.5857V2.6587C1.27732 2.3945 1.49216 2.17949 1.75635 2.17949H15.3687C15.6329 2.17949 15.8478 2.3945 15.8478 2.6587V12.5857C15.8478 12.8499 15.6329 13.0649 15.3687 13.0649H8.25975ZM20.6368 16.9811C20.6368 17.0241 20.6019 17.059 20.5589 17.059H19.523C19.22 17.059 18.956 17.2652 18.8826 17.559L18.4967 19.1017L17.0096 17.299C16.8842 17.1471 16.6974 17.059 16.5005 17.059H11.7399C11.6969 17.059 11.6618 17.0241 11.6618 16.9811V14.385H15.3687C16.3609 14.385 17.1679 13.5778 17.1679 12.5857V10.4716H20.5589C20.6019 10.4716 20.6368 10.5066 20.6368 10.5497V16.9811Z" fill="#033A48"/>
<path d="M10.6736 11.3688C10.5685 11.3688 10.4631 11.3438 10.3665 11.2929L8.5626 10.3446L6.75858 11.2929C6.53619 11.4099 6.26679 11.3904 6.06336 11.2426C5.8601 11.095 5.75838 10.8446 5.80085 10.597L6.14544 8.58824L4.68584 7.16573C4.50608 6.99033 4.44129 6.72799 4.51883 6.48897C4.59655 6.25013 4.80317 6.0759 5.05175 6.03981L7.0686 5.74675L7.97061 3.91907C8.08189 3.69382 8.31134 3.55115 8.5626 3.55115C8.81387 3.55115 9.04332 3.69382 9.15443 3.91907L10.0564 5.74675L12.0733 6.03981C12.322 6.0759 12.5287 6.25013 12.6062 6.48897C12.6839 6.72799 12.6191 6.99033 12.4392 7.16573L10.9798 8.58824L11.3242 10.597C11.3667 10.8446 11.2649 11.095 11.0617 11.2426C10.9467 11.3263 10.8106 11.3688 10.6736 11.3688ZM6.56522 7.15398L7.31533 7.88529C7.47093 8.03686 7.54193 8.2554 7.50517 8.46957L7.32809 9.502L8.25544 9.01457C8.44763 8.91336 8.67741 8.91336 8.86976 9.01457L9.79695 9.502L9.61987 8.46957C9.58311 8.2554 9.65411 8.03686 9.80971 7.88529L10.5598 7.15398L9.52319 7.00326C9.30818 6.97204 9.12221 6.83709 9.0262 6.64222L8.5626 5.70278L8.09901 6.64222C8.00267 6.83709 7.81686 6.97204 7.60185 7.00326L6.56522 7.15398Z" fill="#033A48"/>
</g>
<defs>
<clipPath id="clip0">
<rect width="22" height="22" fill="white"/>
</clipPath>
</defs>
</svg>
