<svg width="12" height="12" viewBox="0 0 12 12" fill="none" xmlns="http://www.w3.org/2000/svg">
<path d="M9.10752 12C8.95286 12 8.79769 11.9616 8.65538 11.8835L6.00005 10.4279L3.34447 11.8835C3.0171 12.0631 2.62054 12.0332 2.32108 11.8062C2.02188 11.5798 1.87215 11.1954 1.93466 10.8154L2.44191 7.73188L0.293331 5.54835C0.0287124 5.27911 -0.066659 4.87642 0.0474901 4.50953C0.161886 4.1429 0.466037 3.87547 0.831957 3.82008L3.80082 3.37023L5.12861 0.564754C5.29242 0.218997 5.63018 0 6.00005 0C6.36992 0 6.70767 0.218997 6.87124 0.564754L8.19903 3.37023L11.1679 3.82008C11.5341 3.87547 11.8382 4.1429 11.9524 4.50953C12.0668 4.87642 11.9714 5.27911 11.7065 5.54835L9.55819 7.73188L10.0652 10.8154C10.1277 11.1954 9.97797 11.5798 9.67877 11.8062C9.50952 11.9348 9.30914 12 9.10752 12ZM3.05984 5.53031L4.16403 6.65287C4.39307 6.88552 4.49758 7.22097 4.44347 7.54972L4.1828 9.13449L5.5479 8.38629C5.8308 8.23093 6.16905 8.23093 6.4522 8.38629L7.81705 9.13449L7.55638 7.54972C7.50227 7.22097 7.60679 6.88552 7.83582 6.65287L8.94001 5.53031L7.41407 5.29895C7.09756 5.25103 6.8238 5.04388 6.68247 4.74476L6.00005 3.30273L5.31762 4.74476C5.1758 5.04388 4.90229 5.25103 4.58578 5.29895L3.05984 5.53031Z" fill="#033A48"/>
</svg>
